<svg xmlns="http://www.w3.org/2000/svg" xmlns:xlink="http://www.w3.org/1999/xlink" width="180" zoomAndPan="magnify" viewBox="0 0 135 135.000003" height="180" preserveAspectRatio="xMidYMid meet" version="1.0"><defs><clipPath id="08b2738436"><path d="M 0.496094 0 L 5 0 L 5 27 L 0.496094 27 Z M 0.496094 0 " clip-rule="nonzero"/></clipPath><clipPath id="ab77d4a79d"><path d="M 116 0 L 134.503906 0 L 134.503906 27 L 116 27 Z M 116 0 " clip-rule="nonzero"/></clipPath><clipPath id="e1e67ffb14"><path d="M 0.496094 71 L 5 71 L 5 99 L 0.496094 99 Z M 0.496094 71 " clip-rule="nonzero"/></clipPath><clipPath id="512b6f6327"><path d="M 116 71 L 134.503906 71 L 134.503906 99 L 116 99 Z M 116 71 " clip-rule="nonzero"/></clipPath><clipPath id="435f7030dc"><path d="M 0.496094 35 L 19 35 L 19 63 L 0.496094 63 Z M 0.496094 35 " clip-rule="nonzero"/></clipPath><clipPath id="e63a3eb00e"><path d="M 130 35 L 134.503906 35 L 134.503906 63 L 130 63 Z M 130 35 " clip-rule="nonzero"/></clipPath><clipPath id="3a9fa1fbda"><path d="M 0.496094 107 L 19 107 L 19 134.007812 L 0.496094 134.007812 Z M 0.496094 107 " clip-rule="nonzero"/></clipPath><clipPath id="8ae117e0bb"><path d="M 31 107 L 37 107 L 37 134.007812 L 31 134.007812 Z M 31 107 " clip-rule="nonzero"/></clipPath><clipPath id="4eaa294cac"><path d="M 49 107 L 68 107 L 68 134.007812 L 49 134.007812 Z M 49 107 " clip-rule="nonzero"/></clipPath><clipPath id="518b600090"><path d="M 80 107 L 86 107 L 86 134.007812 L 80 134.007812 Z M 80 107 " clip-rule="nonzero"/></clipPath><clipPath id="8add114390"><path d="M 130 107 L 134.503906 107 L 134.503906 134.007812 L 130 134.007812 Z M 130 107 " clip-rule="nonzero"/></clipPath><clipPath id="caace856d4"><path d="M 98 107 L 117 107 L 117 134.007812 L 98 134.007812 Z M 98 107 " clip-rule="nonzero"/></clipPath></defs><g clip-path="url(#08b2738436)"><path fill="#00ff41" d="M 0.496094 0 L 4.964844 0 L 4.964844 26.800781 L 0.496094 26.800781 Z M 0.496094 0 " fill-opacity="1" fill-rule="nonzero"/></g><path fill="#00ff41" d="M 27.296875 26.800781 C 27.882812 26.800781 28.464844 26.746094 29.039062 26.628906 C 29.617188 26.515625 30.175781 26.347656 30.714844 26.121094 C 31.257812 25.898438 31.773438 25.621094 32.261719 25.296875 C 32.75 24.96875 33.199219 24.597656 33.613281 24.183594 C 34.03125 23.769531 34.398438 23.320312 34.726562 22.832031 C 35.050781 22.34375 35.328125 21.828125 35.550781 21.285156 C 35.777344 20.746094 35.945312 20.1875 36.058594 19.609375 C 36.175781 19.035156 36.230469 18.453125 36.230469 17.867188 L 36.230469 8.933594 C 36.230469 8.347656 36.175781 7.765625 36.058594 7.191406 C 35.945312 6.617188 35.777344 6.058594 35.550781 5.515625 C 35.328125 4.972656 35.050781 4.457031 34.726562 3.96875 C 34.398438 3.484375 34.03125 3.03125 33.613281 2.617188 C 33.199219 2.203125 32.75 1.832031 32.261719 1.503906 C 31.773438 1.179688 31.257812 0.90625 30.714844 0.679688 C 30.175781 0.457031 29.617188 0.285156 29.039062 0.171875 C 28.464844 0.0585938 27.882812 0 27.296875 0 C 26.710938 0 26.128906 0.0585938 25.554688 0.171875 C 24.980469 0.285156 24.421875 0.457031 23.878906 0.679688 C 23.335938 0.90625 22.820312 1.179688 22.335938 1.503906 C 21.847656 1.832031 21.394531 2.203125 20.980469 2.617188 C 20.566406 3.03125 20.195312 3.484375 19.871094 3.96875 C 19.542969 4.457031 19.269531 4.972656 19.042969 5.515625 C 18.820312 6.058594 18.648438 6.617188 18.535156 7.191406 C 18.421875 7.765625 18.363281 8.347656 18.363281 8.933594 L 18.363281 17.867188 C 18.363281 18.453125 18.421875 19.035156 18.535156 19.609375 C 18.648438 20.1875 18.820312 20.746094 19.042969 21.285156 C 19.269531 21.828125 19.542969 22.34375 19.871094 22.832031 C 20.195312 23.320312 20.566406 23.769531 20.980469 24.183594 C 21.394531 24.597656 21.847656 24.96875 22.335938 25.296875 C 22.820312 25.621094 23.335938 25.898438 23.878906 26.121094 C 24.421875 26.347656 24.980469 26.515625 25.554688 26.628906 C 26.128906 26.746094 26.710938 26.800781 27.296875 26.800781 Z M 22.832031 8.933594 C 22.832031 8.640625 22.859375 8.351562 22.917969 8.0625 C 22.972656 7.773438 23.058594 7.496094 23.171875 7.222656 C 23.28125 6.953125 23.421875 6.695312 23.582031 6.453125 C 23.746094 6.207031 23.933594 5.984375 24.140625 5.773438 C 24.347656 5.566406 24.570312 5.382812 24.816406 5.21875 C 25.058594 5.058594 25.316406 4.917969 25.589844 4.808594 C 25.859375 4.695312 26.136719 4.609375 26.425781 4.554688 C 26.714844 4.496094 27.003906 4.46875 27.296875 4.46875 C 27.589844 4.46875 27.882812 4.496094 28.167969 4.554688 C 28.457031 4.609375 28.734375 4.695312 29.007812 4.808594 C 29.277344 4.917969 29.535156 5.058594 29.78125 5.21875 C 30.023438 5.382812 30.25 5.566406 30.457031 5.773438 C 30.664062 5.984375 30.847656 6.207031 31.011719 6.453125 C 31.175781 6.695312 31.3125 6.953125 31.425781 7.222656 C 31.535156 7.496094 31.621094 7.773438 31.679688 8.0625 C 31.734375 8.351562 31.765625 8.640625 31.765625 8.933594 L 31.765625 17.867188 C 31.765625 18.160156 31.734375 18.453125 31.679688 18.738281 C 31.621094 19.027344 31.535156 19.304688 31.425781 19.578125 C 31.3125 19.847656 31.175781 20.105469 31.011719 20.347656 C 30.847656 20.59375 30.664062 20.820312 30.457031 21.027344 C 30.25 21.234375 30.023438 21.417969 29.78125 21.582031 C 29.535156 21.746094 29.277344 21.882812 29.007812 21.996094 C 28.734375 22.105469 28.457031 22.191406 28.167969 22.25 C 27.882812 22.304688 27.589844 22.335938 27.296875 22.335938 C 27.003906 22.335938 26.714844 22.304688 26.425781 22.25 C 26.136719 22.191406 25.859375 22.105469 25.589844 21.996094 C 25.316406 21.882812 25.058594 21.746094 24.816406 21.582031 C 24.570312 21.417969 24.347656 21.234375 24.140625 21.027344 C 23.933594 20.820312 23.746094 20.59375 23.582031 20.347656 C 23.421875 20.105469 23.28125 19.847656 23.171875 19.578125 C 23.058594 19.304688 22.972656 19.027344 22.917969 18.738281 C 22.859375 18.453125 22.832031 18.160156 22.832031 17.867188 Z M 22.832031 8.933594 " fill-opacity="1" fill-rule="nonzero"/><path fill="#00ff41" d="M 49.632812 0 L 54.097656 0 L 54.097656 26.800781 L 49.632812 26.800781 Z M 49.632812 0 " fill-opacity="1" fill-rule="nonzero"/><path fill="#00ff41" d="M 76.433594 26.800781 C 77.019531 26.800781 77.601562 26.746094 78.175781 26.628906 C 78.753906 26.515625 79.3125 26.347656 79.851562 26.121094 C 80.394531 25.898438 80.910156 25.621094 81.398438 25.296875 C 81.886719 24.96875 82.335938 24.597656 82.75 24.183594 C 83.164062 23.769531 83.535156 23.320312 83.863281 22.832031 C 84.1875 22.34375 84.464844 21.828125 84.6875 21.285156 C 84.910156 20.746094 85.082031 20.1875 85.195312 19.609375 C 85.308594 19.035156 85.367188 18.453125 85.367188 17.867188 L 85.367188 8.933594 C 85.367188 8.347656 85.308594 7.765625 85.195312 7.191406 C 85.082031 6.617188 84.910156 6.058594 84.6875 5.515625 C 84.464844 4.972656 84.1875 4.457031 83.863281 3.96875 C 83.535156 3.484375 83.164062 3.03125 82.75 2.617188 C 82.335938 2.203125 81.886719 1.832031 81.398438 1.503906 C 80.910156 1.179688 80.394531 0.90625 79.851562 0.679688 C 79.3125 0.457031 78.753906 0.285156 78.175781 0.171875 C 77.601562 0.0585938 77.019531 0 76.433594 0 C 75.847656 0 75.265625 0.0585938 74.691406 0.171875 C 74.117188 0.285156 73.558594 0.457031 73.015625 0.679688 C 72.472656 0.90625 71.957031 1.179688 71.46875 1.503906 C 70.984375 1.832031 70.53125 2.203125 70.117188 2.617188 C 69.703125 3.03125 69.332031 3.484375 69.003906 3.96875 C 68.679688 4.457031 68.40625 4.972656 68.179688 5.515625 C 67.957031 6.058594 67.785156 6.617188 67.671875 7.191406 C 67.558594 7.765625 67.5 8.347656 67.5 8.933594 L 67.5 17.867188 C 67.5 18.453125 67.558594 19.035156 67.671875 19.609375 C 67.785156 20.1875 67.957031 20.746094 68.179688 21.285156 C 68.40625 21.828125 68.679688 22.34375 69.003906 22.832031 C 69.332031 23.320312 69.703125 23.769531 70.117188 24.183594 C 70.53125 24.597656 70.984375 24.96875 71.46875 25.296875 C 71.957031 25.621094 72.472656 25.898438 73.015625 26.121094 C 73.558594 26.347656 74.117188 26.515625 74.691406 26.628906 C 75.265625 26.746094 75.847656 26.800781 76.433594 26.800781 Z M 71.96875 8.933594 C 71.96875 8.640625 71.996094 8.351562 72.050781 8.0625 C 72.109375 7.773438 72.195312 7.496094 72.308594 7.222656 C 72.417969 6.953125 72.558594 6.695312 72.71875 6.453125 C 72.882812 6.207031 73.066406 5.984375 73.273438 5.773438 C 73.484375 5.566406 73.707031 5.382812 73.953125 5.21875 C 74.195312 5.058594 74.453125 4.917969 74.722656 4.808594 C 74.996094 4.695312 75.273438 4.609375 75.5625 4.554688 C 75.851562 4.496094 76.140625 4.46875 76.433594 4.46875 C 76.726562 4.46875 77.019531 4.496094 77.304688 4.554688 C 77.59375 4.609375 77.871094 4.695312 78.144531 4.808594 C 78.414062 4.917969 78.671875 5.058594 78.914062 5.21875 C 79.160156 5.382812 79.386719 5.566406 79.59375 5.773438 C 79.800781 5.984375 79.984375 6.207031 80.148438 6.453125 C 80.3125 6.695312 80.449219 6.953125 80.5625 7.222656 C 80.671875 7.496094 80.757812 7.773438 80.816406 8.0625 C 80.871094 8.351562 80.902344 8.640625 80.902344 8.933594 L 80.902344 17.867188 C 80.902344 18.160156 80.871094 18.453125 80.816406 18.738281 C 80.757812 19.027344 80.671875 19.304688 80.5625 19.578125 C 80.449219 19.847656 80.3125 20.105469 80.148438 20.347656 C 79.984375 20.59375 79.800781 20.820312 79.59375 21.027344 C 79.386719 21.234375 79.160156 21.417969 78.914062 21.582031 C 78.671875 21.746094 78.414062 21.882812 78.144531 21.996094 C 77.871094 22.105469 77.59375 22.191406 77.304688 22.25 C 77.019531 22.304688 76.726562 22.335938 76.433594 22.335938 C 76.140625 22.335938 75.851562 22.304688 75.5625 22.25 C 75.273438 22.191406 74.996094 22.105469 74.722656 21.996094 C 74.453125 21.882812 74.195312 21.746094 73.953125 21.582031 C 73.707031 21.417969 73.484375 21.234375 73.273438 21.027344 C 73.066406 20.820312 72.882812 20.59375 72.71875 20.347656 C 72.558594 20.105469 72.417969 19.847656 72.308594 19.578125 C 72.195312 19.304688 72.109375 19.027344 72.050781 18.738281 C 71.996094 18.453125 71.96875 18.160156 71.96875 17.867188 Z M 71.96875 8.933594 " fill-opacity="1" fill-rule="nonzero"/><path fill="#00ff41" d="M 98.769531 0 L 103.234375 0 L 103.234375 26.800781 L 98.769531 26.800781 Z M 98.769531 0 " fill-opacity="1" fill-rule="nonzero"/><g clip-path="url(#ab77d4a79d)"><path fill="#00ff41" d="M 125.570312 0 C 124.984375 0 124.402344 0.0585938 123.828125 0.171875 C 123.25 0.285156 122.691406 0.457031 122.152344 0.679688 C 121.609375 0.90625 121.09375 1.179688 120.605469 1.503906 C 120.117188 1.832031 119.667969 2.203125 119.253906 2.617188 C 118.835938 3.03125 118.46875 3.484375 118.140625 3.96875 C 117.816406 4.457031 117.539062 4.972656 117.316406 5.515625 C 117.089844 6.058594 116.921875 6.617188 116.808594 7.191406 C 116.691406 7.765625 116.636719 8.347656 116.636719 8.933594 L 116.636719 17.867188 C 116.636719 18.453125 116.691406 19.035156 116.808594 19.609375 C 116.921875 20.1875 117.089844 20.746094 117.316406 21.285156 C 117.539062 21.828125 117.816406 22.34375 118.140625 22.832031 C 118.46875 23.320312 118.835938 23.769531 119.253906 24.183594 C 119.667969 24.597656 120.117188 24.96875 120.605469 25.296875 C 121.09375 25.621094 121.609375 25.898438 122.152344 26.121094 C 122.691406 26.347656 123.25 26.515625 123.828125 26.628906 C 124.402344 26.746094 124.984375 26.800781 125.570312 26.800781 C 126.15625 26.800781 126.738281 26.746094 127.3125 26.628906 C 127.886719 26.515625 128.445312 26.347656 128.988281 26.121094 C 129.53125 25.898438 130.046875 25.621094 130.53125 25.296875 C 131.019531 24.96875 131.472656 24.597656 131.886719 24.183594 C 132.300781 23.769531 132.671875 23.320312 132.996094 22.832031 C 133.324219 22.34375 133.597656 21.828125 133.824219 21.285156 C 134.046875 20.746094 134.21875 20.1875 134.332031 19.609375 C 134.445312 19.035156 134.503906 18.453125 134.503906 17.867188 L 134.503906 8.933594 C 134.503906 8.347656 134.445312 7.765625 134.332031 7.191406 C 134.21875 6.617188 134.046875 6.058594 133.824219 5.515625 C 133.597656 4.972656 133.324219 4.457031 132.996094 3.96875 C 132.671875 3.484375 132.300781 3.03125 131.886719 2.617188 C 131.472656 2.203125 131.019531 1.832031 130.53125 1.503906 C 130.046875 1.179688 129.53125 0.90625 128.988281 0.679688 C 128.445312 0.457031 127.886719 0.285156 127.3125 0.171875 C 126.738281 0.0585938 126.15625 0 125.570312 0 Z M 130.035156 17.867188 C 130.035156 18.160156 130.007812 18.453125 129.949219 18.738281 C 129.894531 19.027344 129.808594 19.304688 129.695312 19.578125 C 129.585938 19.847656 129.445312 20.105469 129.285156 20.347656 C 129.121094 20.59375 128.9375 20.820312 128.726562 21.027344 C 128.519531 21.234375 128.296875 21.417969 128.050781 21.582031 C 127.808594 21.746094 127.550781 21.882812 127.277344 21.996094 C 127.007812 22.105469 126.730469 22.191406 126.441406 22.25 C 126.152344 22.304688 125.863281 22.335938 125.570312 22.335938 C 125.277344 22.335938 124.984375 22.304688 124.699219 22.25 C 124.410156 22.191406 124.132812 22.105469 123.859375 21.996094 C 123.589844 21.882812 123.332031 21.746094 123.089844 21.582031 C 122.84375 21.417969 122.617188 21.234375 122.410156 21.027344 C 122.203125 20.820312 122.019531 20.59375 121.855469 20.347656 C 121.691406 20.105469 121.554688 19.847656 121.441406 19.578125 C 121.332031 19.304688 121.246094 19.027344 121.1875 18.738281 C 121.132812 18.453125 121.101562 18.160156 121.101562 17.867188 L 121.101562 8.933594 C 121.101562 8.640625 121.132812 8.351562 121.1875 8.0625 C 121.246094 7.773438 121.332031 7.496094 121.441406 7.222656 C 121.554688 6.953125 121.691406 6.695312 121.855469 6.453125 C 122.019531 6.207031 122.203125 5.984375 122.410156 5.773438 C 122.617188 5.566406 122.84375 5.382812 123.089844 5.21875 C 123.332031 5.058594 123.589844 4.917969 123.859375 4.808594 C 124.132812 4.695312 124.410156 4.609375 124.699219 4.554688 C 124.984375 4.496094 125.277344 4.46875 125.570312 4.46875 C 125.863281 4.46875 126.152344 4.496094 126.441406 4.554688 C 126.730469 4.609375 127.007812 4.695312 127.277344 4.808594 C 127.550781 4.917969 127.808594 5.058594 128.050781 5.21875 C 128.296875 5.382812 128.519531 5.566406 128.726562 5.773438 C 128.9375 5.984375 129.121094 6.207031 129.285156 6.453125 C 129.445312 6.695312 129.585938 6.953125 129.695312 7.222656 C 129.808594 7.496094 129.894531 7.773438 129.949219 8.0625 C 130.007812 8.351562 130.035156 8.640625 130.035156 8.933594 Z M 130.035156 17.867188 " fill-opacity="1" fill-rule="nonzero"/></g><g clip-path="url(#e1e67ffb14)"><path fill="#00ff41" d="M 0.496094 71.46875 L 4.964844 71.46875 L 4.964844 98.273438 L 0.496094 98.273438 Z M 0.496094 71.46875 " fill-opacity="1" fill-rule="nonzero"/></g><path fill="#00ff41" d="M 18.363281 80.40625 L 18.363281 89.339844 C 18.363281 89.925781 18.421875 90.503906 18.535156 91.082031 C 18.648438 91.65625 18.820312 92.214844 19.042969 92.757812 C 19.269531 93.300781 19.542969 93.8125 19.871094 94.300781 C 20.195312 94.789062 20.566406 95.242188 20.980469 95.65625 C 21.394531 96.070312 21.847656 96.441406 22.335938 96.765625 C 22.820312 97.09375 23.335938 97.367188 23.878906 97.59375 C 24.421875 97.816406 24.980469 97.984375 25.554688 98.101562 C 26.128906 98.214844 26.710938 98.273438 27.296875 98.273438 C 27.882812 98.273438 28.464844 98.214844 29.039062 98.101562 C 29.617188 97.984375 30.175781 97.816406 30.714844 97.59375 C 31.257812 97.367188 31.773438 97.09375 32.261719 96.765625 C 32.75 96.441406 33.199219 96.070312 33.613281 95.65625 C 34.03125 95.242188 34.398438 94.789062 34.726562 94.300781 C 35.050781 93.8125 35.328125 93.300781 35.550781 92.757812 C 35.777344 92.214844 35.945312 91.65625 36.058594 91.082031 C 36.175781 90.503906 36.230469 89.925781 36.230469 89.339844 L 36.230469 80.40625 C 36.230469 79.816406 36.175781 79.238281 36.058594 78.660156 C 35.945312 78.085938 35.777344 77.527344 35.550781 76.984375 C 35.328125 76.445312 35.050781 75.929688 34.726562 75.441406 C 34.398438 74.953125 34.03125 74.503906 33.613281 74.085938 C 33.199219 73.671875 32.75 73.300781 32.261719 72.976562 C 31.773438 72.648438 31.257812 72.375 30.714844 72.152344 C 30.175781 71.925781 29.617188 71.757812 29.039062 71.640625 C 28.464844 71.527344 27.882812 71.46875 27.296875 71.46875 C 26.710938 71.46875 26.128906 71.527344 25.554688 71.640625 C 24.980469 71.757812 24.421875 71.925781 23.878906 72.152344 C 23.335938 72.375 22.820312 72.648438 22.335938 72.976562 C 21.847656 73.300781 21.394531 73.671875 20.980469 74.085938 C 20.566406 74.503906 20.195312 74.953125 19.871094 75.441406 C 19.542969 75.929688 19.269531 76.445312 19.042969 76.984375 C 18.820312 77.527344 18.648438 78.085938 18.535156 78.660156 C 18.421875 79.238281 18.363281 79.816406 18.363281 80.40625 Z M 31.765625 80.40625 L 31.765625 89.339844 C 31.765625 89.632812 31.734375 89.921875 31.679688 90.210938 C 31.621094 90.496094 31.535156 90.777344 31.425781 91.046875 C 31.3125 91.320312 31.175781 91.574219 31.011719 91.820312 C 30.847656 92.0625 30.664062 92.289062 30.457031 92.496094 C 30.25 92.703125 30.023438 92.890625 29.78125 93.050781 C 29.535156 93.214844 29.277344 93.351562 29.007812 93.464844 C 28.734375 93.578125 28.457031 93.660156 28.167969 93.71875 C 27.882812 93.777344 27.589844 93.804688 27.296875 93.804688 C 27.003906 93.804688 26.714844 93.777344 26.425781 93.71875 C 26.136719 93.660156 25.859375 93.578125 25.589844 93.464844 C 25.316406 93.351562 25.058594 93.214844 24.816406 93.050781 C 24.570312 92.890625 24.347656 92.703125 24.140625 92.496094 C 23.933594 92.289062 23.746094 92.0625 23.582031 91.820312 C 23.421875 91.574219 23.28125 91.320312 23.171875 91.046875 C 23.058594 90.777344 22.972656 90.496094 22.917969 90.210938 C 22.859375 89.921875 22.832031 89.632812 22.832031 89.339844 L 22.832031 80.40625 C 22.832031 80.109375 22.859375 79.820312 22.917969 79.53125 C 22.972656 79.246094 23.058594 78.964844 23.171875 78.695312 C 23.28125 78.425781 23.421875 78.167969 23.582031 77.921875 C 23.746094 77.679688 23.933594 77.453125 24.140625 77.246094 C 24.347656 77.039062 24.570312 76.851562 24.816406 76.691406 C 25.058594 76.527344 25.316406 76.390625 25.589844 76.277344 C 25.859375 76.164062 26.136719 76.082031 26.425781 76.023438 C 26.714844 75.964844 27.003906 75.9375 27.296875 75.9375 C 27.589844 75.9375 27.882812 75.964844 28.167969 76.023438 C 28.457031 76.082031 28.734375 76.164062 29.007812 76.277344 C 29.277344 76.390625 29.535156 76.527344 29.78125 76.691406 C 30.023438 76.851562 30.25 77.039062 30.457031 77.246094 C 30.664062 77.453125 30.847656 77.679688 31.011719 77.921875 C 31.175781 78.167969 31.3125 78.425781 31.425781 78.695312 C 31.535156 78.964844 31.621094 79.246094 31.679688 79.53125 C 31.734375 79.820312 31.765625 80.109375 31.765625 80.40625 Z M 31.765625 80.40625 " fill-opacity="1" fill-rule="nonzero"/><path fill="#00ff41" d="M 49.632812 71.46875 L 54.097656 71.46875 L 54.097656 98.273438 L 49.632812 98.273438 Z M 49.632812 71.46875 " fill-opacity="1" fill-rule="nonzero"/><path fill="#00ff41" d="M 67.5 80.40625 L 67.5 89.339844 C 67.5 89.925781 67.558594 90.503906 67.671875 91.082031 C 67.785156 91.65625 67.957031 92.214844 68.179688 92.757812 C 68.40625 93.300781 68.679688 93.8125 69.003906 94.300781 C 69.332031 94.789062 69.703125 95.242188 70.117188 95.65625 C 70.53125 96.070312 70.984375 96.441406 71.46875 96.765625 C 71.957031 97.09375 72.472656 97.367188 73.015625 97.59375 C 73.558594 97.816406 74.117188 97.984375 74.691406 98.101562 C 75.265625 98.214844 75.847656 98.273438 76.433594 98.273438 C 77.019531 98.273438 77.601562 98.214844 78.175781 98.101562 C 78.753906 97.984375 79.3125 97.816406 79.851562 97.59375 C 80.394531 97.367188 80.910156 97.09375 81.398438 96.765625 C 81.886719 96.441406 82.335938 96.070312 82.75 95.65625 C 83.164062 95.242188 83.535156 94.789062 83.863281 94.300781 C 84.1875 93.8125 84.464844 93.300781 84.6875 92.757812 C 84.910156 92.214844 85.082031 91.65625 85.195312 91.082031 C 85.308594 90.503906 85.367188 89.925781 85.367188 89.339844 L 85.367188 80.40625 C 85.367188 79.816406 85.308594 79.238281 85.195312 78.660156 C 85.082031 78.085938 84.910156 77.527344 84.6875 76.984375 C 84.464844 76.445312 84.1875 75.929688 83.863281 75.441406 C 83.535156 74.953125 83.164062 74.503906 82.75 74.085938 C 82.335938 73.671875 81.886719 73.300781 81.398438 72.976562 C 80.910156 72.648438 80.394531 72.375 79.851562 72.152344 C 79.3125 71.925781 78.753906 71.757812 78.175781 71.640625 C 77.601562 71.527344 77.019531 71.46875 76.433594 71.46875 C 75.847656 71.46875 75.265625 71.527344 74.691406 71.640625 C 74.117188 71.757812 73.558594 71.925781 73.015625 72.152344 C 72.472656 72.375 71.957031 72.648438 71.46875 72.976562 C 70.984375 73.300781 70.53125 73.671875 70.117188 74.085938 C 69.703125 74.503906 69.332031 74.953125 69.003906 75.441406 C 68.679688 75.929688 68.40625 76.445312 68.179688 76.984375 C 67.957031 77.527344 67.785156 78.085938 67.671875 78.660156 C 67.558594 79.238281 67.5 79.816406 67.5 80.40625 Z M 80.902344 80.40625 L 80.902344 89.339844 C 80.902344 89.632812 80.871094 89.921875 80.816406 90.210938 C 80.757812 90.496094 80.671875 90.777344 80.5625 91.046875 C 80.449219 91.320312 80.3125 91.574219 80.148438 91.820312 C 79.984375 92.0625 79.800781 92.289062 79.59375 92.496094 C 79.386719 92.703125 79.160156 92.890625 78.914062 93.050781 C 78.671875 93.214844 78.414062 93.351562 78.144531 93.464844 C 77.871094 93.578125 77.59375 93.660156 77.304688 93.71875 C 77.019531 93.777344 76.726562 93.804688 76.433594 93.804688 C 76.140625 93.804688 75.851562 93.777344 75.5625 93.71875 C 75.273438 93.660156 74.996094 93.578125 74.722656 93.464844 C 74.453125 93.351562 74.195312 93.214844 73.953125 93.050781 C 73.707031 92.890625 73.484375 92.703125 73.273438 92.496094 C 73.066406 92.289062 72.882812 92.0625 72.71875 91.820312 C 72.558594 91.574219 72.417969 91.320312 72.308594 91.046875 C 72.195312 90.777344 72.109375 90.496094 72.050781 90.210938 C 71.996094 89.921875 71.96875 89.632812 71.96875 89.339844 L 71.96875 80.40625 C 71.96875 80.109375 71.996094 79.820312 72.050781 79.53125 C 72.109375 79.246094 72.195312 78.964844 72.308594 78.695312 C 72.417969 78.425781 72.558594 78.167969 72.71875 77.921875 C 72.882812 77.679688 73.066406 77.453125 73.273438 77.246094 C 73.484375 77.039062 73.707031 76.851562 73.953125 76.691406 C 74.195312 76.527344 74.453125 76.390625 74.722656 76.277344 C 74.996094 76.164062 75.273438 76.082031 75.5625 76.023438 C 75.851562 75.964844 76.140625 75.9375 76.433594 75.9375 C 76.726562 75.9375 77.019531 75.964844 77.304688 76.023438 C 77.59375 76.082031 77.871094 76.164062 78.144531 76.277344 C 78.414062 76.390625 78.671875 76.527344 78.914062 76.691406 C 79.160156 76.851562 79.386719 77.039062 79.59375 77.246094 C 79.800781 77.453125 79.984375 77.679688 80.148438 77.921875 C 80.3125 78.167969 80.449219 78.425781 80.5625 78.695312 C 80.671875 78.964844 80.757812 79.246094 80.816406 79.53125 C 80.871094 79.820312 80.902344 80.109375 80.902344 80.40625 Z M 80.902344 80.40625 " fill-opacity="1" fill-rule="nonzero"/><path fill="#00ff41" d="M 98.769531 71.46875 L 103.234375 71.46875 L 103.234375 98.273438 L 98.769531 98.273438 Z M 98.769531 71.46875 " fill-opacity="1" fill-rule="nonzero"/><g clip-path="url(#512b6f6327)"><path fill="#00ff41" d="M 125.570312 71.46875 C 124.984375 71.46875 124.402344 71.527344 123.828125 71.640625 C 123.25 71.757812 122.691406 71.925781 122.152344 72.152344 C 121.609375 72.375 121.09375 72.648438 120.605469 72.976562 C 120.117188 73.300781 119.667969 73.671875 119.253906 74.085938 C 118.835938 74.503906 118.46875 74.953125 118.140625 75.441406 C 117.816406 75.929688 117.539062 76.445312 117.316406 76.984375 C 117.089844 77.527344 116.921875 78.085938 116.808594 78.660156 C 116.691406 79.238281 116.636719 79.816406 116.636719 80.40625 L 116.636719 89.339844 C 116.636719 89.925781 116.691406 90.503906 116.808594 91.082031 C 116.921875 91.65625 117.089844 92.214844 117.316406 92.757812 C 117.539062 93.300781 117.816406 93.8125 118.140625 94.300781 C 118.46875 94.789062 118.835938 95.242188 119.253906 95.65625 C 119.667969 96.070312 120.117188 96.441406 120.605469 96.765625 C 121.09375 97.09375 121.609375 97.367188 122.152344 97.59375 C 122.691406 97.816406 123.25 97.984375 123.828125 98.101562 C 124.402344 98.214844 124.984375 98.273438 125.570312 98.273438 C 126.15625 98.273438 126.738281 98.214844 127.3125 98.101562 C 127.886719 97.984375 128.445312 97.816406 128.988281 97.59375 C 129.53125 97.367188 130.046875 97.09375 130.53125 96.765625 C 131.019531 96.441406 131.472656 96.070312 131.886719 95.65625 C 132.300781 95.242188 132.671875 94.789062 132.996094 94.300781 C 133.324219 93.8125 133.597656 93.300781 133.824219 92.757812 C 134.046875 92.214844 134.21875 91.65625 134.332031 91.082031 C 134.445312 90.503906 134.503906 89.925781 134.503906 89.339844 L 134.503906 80.40625 C 134.503906 79.816406 134.445312 79.238281 134.332031 78.660156 C 134.21875 78.085938 134.046875 77.527344 133.824219 76.984375 C 133.597656 76.445312 133.324219 75.929688 132.996094 75.441406 C 132.671875 74.953125 132.300781 74.503906 131.886719 74.085938 C 131.472656 73.671875 131.019531 73.300781 130.53125 72.976562 C 130.046875 72.648438 129.53125 72.375 128.988281 72.152344 C 128.445312 71.925781 127.886719 71.757812 127.3125 71.640625 C 126.738281 71.527344 126.15625 71.46875 125.570312 71.46875 Z M 130.035156 89.339844 C 130.035156 89.632812 130.007812 89.921875 129.949219 90.210938 C 129.894531 90.496094 129.808594 90.777344 129.695312 91.046875 C 129.585938 91.320312 129.445312 91.574219 129.285156 91.820312 C 129.121094 92.0625 128.9375 92.289062 128.726562 92.496094 C 128.519531 92.703125 128.296875 92.890625 128.050781 93.050781 C 127.808594 93.214844 127.550781 93.351562 127.277344 93.464844 C 127.007812 93.578125 126.730469 93.660156 126.441406 93.71875 C 126.152344 93.777344 125.863281 93.804688 125.570312 93.804688 C 125.277344 93.804688 124.984375 93.777344 124.699219 93.71875 C 124.410156 93.660156 124.132812 93.578125 123.859375 93.464844 C 123.589844 93.351562 123.332031 93.214844 123.089844 93.050781 C 122.84375 92.890625 122.617188 92.703125 122.410156 92.496094 C 122.203125 92.289062 122.019531 92.0625 121.855469 91.820312 C 121.691406 91.574219 121.554688 91.320312 121.441406 91.046875 C 121.332031 90.777344 121.246094 90.496094 121.1875 90.210938 C 121.132812 89.921875 121.101562 89.632812 121.101562 89.339844 L 121.101562 80.40625 C 121.101562 80.109375 121.132812 79.820312 121.1875 79.53125 C 121.246094 79.246094 121.332031 78.964844 121.441406 78.695312 C 121.554688 78.425781 121.691406 78.167969 121.855469 77.921875 C 122.019531 77.679688 122.203125 77.453125 122.410156 77.246094 C 122.617188 77.039062 122.84375 76.851562 123.089844 76.691406 C 123.332031 76.527344 123.589844 76.390625 123.859375 76.277344 C 124.132812 76.164062 124.410156 76.082031 124.699219 76.023438 C 124.984375 75.964844 125.277344 75.9375 125.570312 75.9375 C 125.863281 75.9375 126.152344 75.964844 126.441406 76.023438 C 126.730469 76.082031 127.007812 76.164062 127.277344 76.277344 C 127.550781 76.390625 127.808594 76.527344 128.050781 76.691406 C 128.296875 76.851562 128.519531 77.039062 128.726562 77.246094 C 128.9375 77.453125 129.121094 77.679688 129.285156 77.921875 C 129.445312 78.167969 129.585938 78.425781 129.695312 78.695312 C 129.808594 78.964844 129.894531 79.246094 129.949219 79.53125 C 130.007812 79.820312 130.035156 80.109375 130.035156 80.40625 Z M 130.035156 89.339844 " fill-opacity="1" fill-rule="nonzero"/></g><g clip-path="url(#435f7030dc)"><path fill="#00ff41" d="M 9.429688 62.535156 C 10.015625 62.535156 10.597656 62.480469 11.171875 62.363281 C 11.75 62.25 12.308594 62.082031 12.847656 61.855469 C 13.390625 61.632812 13.90625 61.355469 14.394531 61.03125 C 14.882812 60.707031 15.332031 60.335938 15.746094 59.921875 C 16.160156 59.503906 16.53125 59.054688 16.859375 58.566406 C 17.183594 58.078125 17.460938 57.5625 17.683594 57.023438 C 17.910156 56.480469 18.078125 55.921875 18.191406 55.347656 C 18.308594 54.769531 18.363281 54.191406 18.363281 53.601562 L 18.363281 44.667969 C 18.363281 44.082031 18.308594 43.5 18.191406 42.925781 C 18.078125 42.351562 17.910156 41.792969 17.683594 41.25 C 17.460938 40.707031 17.183594 40.195312 16.859375 39.707031 C 16.53125 39.21875 16.160156 38.765625 15.746094 38.351562 C 15.332031 37.9375 14.882812 37.566406 14.394531 37.242188 C 13.90625 36.914062 13.390625 36.640625 12.847656 36.414062 C 12.308594 36.191406 11.75 36.019531 11.171875 35.90625 C 10.597656 35.792969 10.015625 35.734375 9.429688 35.734375 C 8.84375 35.734375 8.261719 35.792969 7.6875 35.90625 C 7.113281 36.019531 6.554688 36.191406 6.011719 36.414062 C 5.46875 36.640625 4.953125 36.914062 4.464844 37.242188 C 3.980469 37.566406 3.527344 37.9375 3.113281 38.351562 C 2.699219 38.765625 2.328125 39.21875 2 39.707031 C 1.675781 40.195312 1.402344 40.707031 1.175781 41.25 C 0.953125 41.792969 0.78125 42.351562 0.667969 42.925781 C 0.554688 43.5 0.496094 44.082031 0.496094 44.667969 L 0.496094 53.601562 C 0.496094 54.191406 0.554688 54.769531 0.667969 55.347656 C 0.78125 55.921875 0.953125 56.480469 1.175781 57.023438 C 1.402344 57.5625 1.675781 58.078125 2 58.566406 C 2.328125 59.054688 2.699219 59.503906 3.113281 59.921875 C 3.527344 60.335938 3.980469 60.707031 4.464844 61.03125 C 4.953125 61.355469 5.46875 61.632812 6.011719 61.855469 C 6.554688 62.082031 7.113281 62.25 7.6875 62.363281 C 8.261719 62.480469 8.84375 62.535156 9.429688 62.535156 Z M 4.964844 44.667969 C 4.964844 44.375 4.992188 44.085938 5.050781 43.796875 C 5.105469 43.511719 5.191406 43.230469 5.304688 42.960938 C 5.414062 42.6875 5.554688 42.429688 5.714844 42.1875 C 5.878906 41.945312 6.0625 41.71875 6.273438 41.511719 C 6.480469 41.304688 6.703125 41.117188 6.949219 40.953125 C 7.191406 40.792969 7.449219 40.65625 7.722656 40.542969 C 7.992188 40.429688 8.269531 40.34375 8.558594 40.289062 C 8.847656 40.230469 9.136719 40.203125 9.429688 40.203125 C 9.722656 40.203125 10.015625 40.230469 10.300781 40.289062 C 10.589844 40.34375 10.867188 40.429688 11.140625 40.542969 C 11.410156 40.65625 11.667969 40.792969 11.910156 40.953125 C 12.15625 41.117188 12.382812 41.304688 12.589844 41.511719 C 12.796875 41.71875 12.980469 41.945312 13.144531 42.1875 C 13.308594 42.429688 13.445312 42.6875 13.558594 42.960938 C 13.667969 43.230469 13.753906 43.511719 13.8125 43.796875 C 13.867188 44.085938 13.898438 44.375 13.898438 44.667969 L 13.898438 53.601562 C 13.898438 53.894531 13.867188 54.1875 13.8125 54.472656 C 13.753906 54.761719 13.667969 55.042969 13.558594 55.3125 C 13.445312 55.582031 13.308594 55.839844 13.144531 56.085938 C 12.980469 56.328125 12.796875 56.554688 12.589844 56.761719 C 12.382812 56.96875 12.15625 57.152344 11.910156 57.316406 C 11.667969 57.480469 11.410156 57.617188 11.140625 57.730469 C 10.867188 57.84375 10.589844 57.925781 10.300781 57.984375 C 10.015625 58.042969 9.722656 58.070312 9.429688 58.070312 C 9.136719 58.070312 8.847656 58.042969 8.558594 57.984375 C 8.269531 57.925781 7.992188 57.84375 7.722656 57.730469 C 7.449219 57.617188 7.191406 57.480469 6.949219 57.316406 C 6.703125 57.152344 6.480469 56.96875 6.273438 56.761719 C 6.0625 56.554688 5.878906 56.328125 5.714844 56.085938 C 5.554688 55.839844 5.414062 55.582031 5.304688 55.3125 C 5.191406 55.042969 5.105469 54.761719 5.050781 54.472656 C 4.992188 54.1875 4.964844 53.894531 4.964844 53.601562 Z M 4.964844 44.667969 " fill-opacity="1" fill-rule="nonzero"/></g><path fill="#00ff41" d="M 31.765625 35.734375 L 36.230469 35.734375 L 36.230469 62.535156 L 31.765625 62.535156 Z M 31.765625 35.734375 " fill-opacity="1" fill-rule="nonzero"/><path fill="#00ff41" d="M 58.566406 62.535156 C 59.152344 62.535156 59.734375 62.480469 60.308594 62.363281 C 60.882812 62.25 61.441406 62.082031 61.984375 61.855469 C 62.527344 61.632812 63.042969 61.355469 63.53125 61.03125 C 64.015625 60.707031 64.46875 60.335938 64.882812 59.921875 C 65.296875 59.503906 65.667969 59.054688 65.996094 58.566406 C 66.320312 58.078125 66.59375 57.5625 66.820312 57.023438 C 67.042969 56.480469 67.214844 55.921875 67.328125 55.347656 C 67.441406 54.769531 67.5 54.191406 67.5 53.601562 L 67.5 44.667969 C 67.5 44.082031 67.441406 43.5 67.328125 42.925781 C 67.214844 42.351562 67.042969 41.792969 66.820312 41.25 C 66.59375 40.707031 66.320312 40.195312 65.996094 39.707031 C 65.667969 39.21875 65.296875 38.765625 64.882812 38.351562 C 64.46875 37.9375 64.015625 37.566406 63.53125 37.242188 C 63.042969 36.914062 62.527344 36.640625 61.984375 36.414062 C 61.441406 36.191406 60.882812 36.019531 60.308594 35.90625 C 59.734375 35.792969 59.152344 35.734375 58.566406 35.734375 C 57.980469 35.734375 57.398438 35.792969 56.824219 35.90625 C 56.246094 36.019531 55.6875 36.191406 55.148438 36.414062 C 54.605469 36.640625 54.089844 36.914062 53.601562 37.242188 C 53.113281 37.566406 52.664062 37.9375 52.25 38.351562 C 51.835938 38.765625 51.464844 39.21875 51.136719 39.707031 C 50.8125 40.195312 50.535156 40.707031 50.3125 41.25 C 50.089844 41.792969 49.917969 42.351562 49.804688 42.925781 C 49.691406 43.5 49.632812 44.082031 49.632812 44.667969 L 49.632812 53.601562 C 49.632812 54.191406 49.691406 54.769531 49.804688 55.347656 C 49.917969 55.921875 50.089844 56.480469 50.3125 57.023438 C 50.535156 57.5625 50.8125 58.078125 51.136719 58.566406 C 51.464844 59.054688 51.835938 59.503906 52.25 59.921875 C 52.664062 60.335938 53.113281 60.707031 53.601562 61.03125 C 54.089844 61.355469 54.605469 61.632812 55.148438 61.855469 C 55.6875 62.082031 56.246094 62.25 56.824219 62.363281 C 57.398438 62.480469 57.980469 62.535156 58.566406 62.535156 Z M 54.097656 44.667969 C 54.097656 44.375 54.128906 44.085938 54.183594 43.796875 C 54.242188 43.511719 54.328125 43.230469 54.4375 42.960938 C 54.550781 42.6875 54.6875 42.429688 54.851562 42.1875 C 55.015625 41.945312 55.199219 41.71875 55.40625 41.511719 C 55.613281 41.304688 55.839844 41.117188 56.085938 40.953125 C 56.328125 40.792969 56.585938 40.65625 56.855469 40.542969 C 57.128906 40.429688 57.40625 40.34375 57.695312 40.289062 C 57.980469 40.230469 58.273438 40.203125 58.566406 40.203125 C 58.859375 40.203125 59.148438 40.230469 59.4375 40.289062 C 59.726562 40.34375 60.003906 40.429688 60.277344 40.542969 C 60.546875 40.65625 60.804688 40.792969 61.046875 40.953125 C 61.292969 41.117188 61.515625 41.304688 61.726562 41.511719 C 61.933594 41.71875 62.117188 41.945312 62.28125 42.1875 C 62.441406 42.429688 62.582031 42.6875 62.691406 42.960938 C 62.804688 43.230469 62.890625 43.511719 62.945312 43.796875 C 63.003906 44.085938 63.03125 44.375 63.03125 44.667969 L 63.03125 53.601562 C 63.03125 53.894531 63.003906 54.1875 62.945312 54.472656 C 62.890625 54.761719 62.804688 55.042969 62.691406 55.3125 C 62.582031 55.582031 62.441406 55.839844 62.28125 56.085938 C 62.117188 56.328125 61.933594 56.554688 61.726562 56.761719 C 61.515625 56.96875 61.292969 57.152344 61.046875 57.316406 C 60.804688 57.480469 60.546875 57.617188 60.277344 57.730469 C 60.003906 57.84375 59.726562 57.925781 59.4375 57.984375 C 59.148438 58.042969 58.859375 58.070312 58.566406 58.070312 C 58.273438 58.070312 57.980469 58.042969 57.695312 57.984375 C 57.40625 57.925781 57.128906 57.84375 56.855469 57.730469 C 56.585938 57.617188 56.328125 57.480469 56.085938 57.316406 C 55.839844 57.152344 55.613281 56.96875 55.40625 56.761719 C 55.199219 56.554688 55.015625 56.328125 54.851562 56.085938 C 54.6875 55.839844 54.550781 55.582031 54.4375 55.3125 C 54.328125 55.042969 54.242188 54.761719 54.183594 54.472656 C 54.128906 54.1875 54.097656 53.894531 54.097656 53.601562 Z M 54.097656 44.667969 " fill-opacity="1" fill-rule="nonzero"/><path fill="#00ff41" d="M 80.902344 35.734375 L 85.367188 35.734375 L 85.367188 62.535156 L 80.902344 62.535156 Z M 80.902344 35.734375 " fill-opacity="1" fill-rule="nonzero"/><g clip-path="url(#e63a3eb00e)"><path fill="#00ff41" d="M 130.035156 35.734375 L 134.503906 35.734375 L 134.503906 62.535156 L 130.035156 62.535156 Z M 130.035156 35.734375 " fill-opacity="1" fill-rule="nonzero"/></g><path fill="#00ff41" d="M 107.703125 62.535156 C 108.289062 62.535156 108.871094 62.480469 109.445312 62.363281 C 110.019531 62.25 110.578125 62.082031 111.121094 61.855469 C 111.664062 61.632812 112.179688 61.355469 112.664062 61.03125 C 113.152344 60.707031 113.605469 60.335938 114.019531 59.921875 C 114.433594 59.503906 114.804688 59.054688 115.128906 58.566406 C 115.457031 58.078125 115.730469 57.5625 115.957031 57.023438 C 116.179688 56.480469 116.351562 55.921875 116.464844 55.347656 C 116.578125 54.769531 116.636719 54.191406 116.636719 53.601562 L 116.636719 44.667969 C 116.636719 44.082031 116.578125 43.5 116.464844 42.925781 C 116.351562 42.351562 116.179688 41.792969 115.957031 41.25 C 115.730469 40.707031 115.457031 40.195312 115.128906 39.707031 C 114.804688 39.21875 114.433594 38.765625 114.019531 38.351562 C 113.605469 37.9375 113.152344 37.566406 112.664062 37.242188 C 112.179688 36.914062 111.664062 36.640625 111.121094 36.414062 C 110.578125 36.191406 110.019531 36.019531 109.445312 35.90625 C 108.871094 35.792969 108.289062 35.734375 107.703125 35.734375 C 107.117188 35.734375 106.535156 35.792969 105.960938 35.90625 C 105.382812 36.019531 104.824219 36.191406 104.285156 36.414062 C 103.742188 36.640625 103.226562 36.914062 102.738281 37.242188 C 102.25 37.566406 101.800781 37.9375 101.386719 38.351562 C 100.96875 38.765625 100.601562 39.21875 100.273438 39.707031 C 99.949219 40.195312 99.671875 40.707031 99.449219 41.25 C 99.222656 41.792969 99.054688 42.351562 98.941406 42.925781 C 98.824219 43.5 98.769531 44.082031 98.769531 44.667969 L 98.769531 53.601562 C 98.769531 54.191406 98.824219 54.769531 98.941406 55.347656 C 99.054688 55.921875 99.222656 56.480469 99.449219 57.023438 C 99.671875 57.5625 99.949219 58.078125 100.273438 58.566406 C 100.601562 59.054688 100.96875 59.503906 101.386719 59.921875 C 101.800781 60.335938 102.25 60.707031 102.738281 61.03125 C 103.226562 61.355469 103.742188 61.632812 104.285156 61.855469 C 104.824219 62.082031 105.382812 62.25 105.960938 62.363281 C 106.535156 62.480469 107.117188 62.535156 107.703125 62.535156 Z M 103.234375 44.667969 C 103.234375 44.375 103.265625 44.085938 103.320312 43.796875 C 103.378906 43.511719 103.464844 43.230469 103.574219 42.960938 C 103.6875 42.6875 103.824219 42.429688 103.988281 42.1875 C 104.152344 41.945312 104.335938 41.71875 104.542969 41.511719 C 104.75 41.304688 104.976562 41.117188 105.21875 40.953125 C 105.464844 40.792969 105.722656 40.65625 105.992188 40.542969 C 106.265625 40.429688 106.542969 40.34375 106.832031 40.289062 C 107.117188 40.230469 107.410156 40.203125 107.703125 40.203125 C 107.996094 40.203125 108.285156 40.230469 108.574219 40.289062 C 108.859375 40.34375 109.140625 40.429688 109.410156 40.542969 C 109.683594 40.65625 109.941406 40.792969 110.183594 40.953125 C 110.429688 41.117188 110.652344 41.304688 110.859375 41.511719 C 111.066406 41.71875 111.253906 41.945312 111.417969 42.1875 C 111.578125 42.429688 111.71875 42.6875 111.828125 42.960938 C 111.941406 43.230469 112.027344 43.511719 112.082031 43.796875 C 112.140625 44.085938 112.167969 44.375 112.167969 44.667969 L 112.167969 53.601562 C 112.167969 53.894531 112.140625 54.1875 112.082031 54.472656 C 112.027344 54.761719 111.941406 55.042969 111.828125 55.3125 C 111.71875 55.582031 111.578125 55.839844 111.417969 56.085938 C 111.253906 56.328125 111.066406 56.554688 110.859375 56.761719 C 110.652344 56.96875 110.429688 57.152344 110.183594 57.316406 C 109.941406 57.480469 109.683594 57.617188 109.410156 57.730469 C 109.140625 57.84375 108.859375 57.925781 108.574219 57.984375 C 108.285156 58.042969 107.996094 58.070312 107.703125 58.070312 C 107.410156 58.070312 107.117188 58.042969 106.832031 57.984375 C 106.542969 57.925781 106.265625 57.84375 105.992188 57.730469 C 105.722656 57.617188 105.464844 57.480469 105.21875 57.316406 C 104.976562 57.152344 104.75 56.96875 104.542969 56.761719 C 104.335938 56.554688 104.152344 56.328125 103.988281 56.085938 C 103.824219 55.839844 103.6875 55.582031 103.574219 55.3125 C 103.464844 55.042969 103.378906 54.761719 103.320312 54.472656 C 103.265625 54.1875 103.234375 53.894531 103.234375 53.601562 Z M 103.234375 44.667969 " fill-opacity="1" fill-rule="nonzero"/><g clip-path="url(#3a9fa1fbda)"><path fill="#00ff41" d="M 9.429688 134.007812 C 10.015625 134.007812 10.597656 133.949219 11.171875 133.835938 C 11.75 133.722656 12.308594 133.550781 12.847656 133.328125 C 13.390625 133.101562 13.90625 132.828125 14.394531 132.5 C 14.882812 132.175781 15.332031 131.804688 15.746094 131.390625 C 16.160156 130.976562 16.53125 130.523438 16.859375 130.035156 C 17.183594 129.550781 17.460938 129.035156 17.683594 128.492188 C 17.910156 127.949219 18.078125 127.390625 18.191406 126.816406 C 18.308594 126.242188 18.363281 125.660156 18.363281 125.074219 L 18.363281 116.140625 C 18.363281 115.554688 18.308594 114.972656 18.191406 114.398438 C 18.078125 113.820312 17.910156 113.261719 17.683594 112.722656 C 17.460938 112.179688 17.183594 111.664062 16.859375 111.175781 C 16.53125 110.6875 16.160156 110.238281 15.746094 109.824219 C 15.332031 109.40625 14.882812 109.039062 14.394531 108.710938 C 13.90625 108.386719 13.390625 108.109375 12.847656 107.886719 C 12.308594 107.660156 11.75 107.492188 11.171875 107.378906 C 10.597656 107.261719 10.015625 107.207031 9.429688 107.207031 C 8.84375 107.207031 8.261719 107.261719 7.6875 107.378906 C 7.113281 107.492188 6.554688 107.660156 6.011719 107.886719 C 5.46875 108.109375 4.953125 108.386719 4.464844 108.710938 C 3.980469 109.039062 3.527344 109.40625 3.113281 109.824219 C 2.699219 110.238281 2.328125 110.6875 2 111.175781 C 1.675781 111.664062 1.402344 112.179688 1.175781 112.722656 C 0.953125 113.261719 0.78125 113.820312 0.667969 114.398438 C 0.554688 114.972656 0.496094 115.554688 0.496094 116.140625 L 0.496094 125.074219 C 0.496094 125.660156 0.554688 126.242188 0.667969 126.816406 C 0.78125 127.390625 0.953125 127.949219 1.175781 128.492188 C 1.402344 129.035156 1.675781 129.550781 2 130.035156 C 2.328125 130.523438 2.699219 130.976562 3.113281 131.390625 C 3.527344 131.804688 3.980469 132.175781 4.464844 132.5 C 4.953125 132.828125 5.46875 133.101562 6.011719 133.328125 C 6.554688 133.550781 7.113281 133.722656 7.6875 133.835938 C 8.261719 133.949219 8.84375 134.007812 9.429688 134.007812 Z M 4.964844 116.140625 C 4.964844 115.847656 4.992188 115.554688 5.050781 115.269531 C 5.105469 114.980469 5.191406 114.703125 5.304688 114.429688 C 5.414062 114.160156 5.554688 113.902344 5.714844 113.65625 C 5.878906 113.414062 6.0625 113.1875 6.273438 112.980469 C 6.480469 112.773438 6.703125 112.589844 6.949219 112.425781 C 7.191406 112.261719 7.449219 112.125 7.722656 112.011719 C 7.992188 111.902344 8.269531 111.816406 8.558594 111.757812 C 8.847656 111.703125 9.136719 111.671875 9.429688 111.671875 C 9.722656 111.671875 10.015625 111.703125 10.300781 111.757812 C 10.589844 111.816406 10.867188 111.902344 11.140625 112.011719 C 11.410156 112.125 11.667969 112.261719 11.910156 112.425781 C 12.15625 112.589844 12.382812 112.773438 12.589844 112.980469 C 12.796875 113.1875 12.980469 113.414062 13.144531 113.65625 C 13.308594 113.902344 13.445312 114.160156 13.558594 114.429688 C 13.667969 114.703125 13.753906 114.980469 13.8125 115.269531 C 13.867188 115.554688 13.898438 115.847656 13.898438 116.140625 L 13.898438 125.074219 C 13.898438 125.367188 13.867188 125.65625 13.8125 125.945312 C 13.753906 126.234375 13.667969 126.511719 13.558594 126.78125 C 13.445312 127.054688 13.308594 127.3125 13.144531 127.554688 C 12.980469 127.800781 12.796875 128.023438 12.589844 128.230469 C 12.382812 128.441406 12.15625 128.625 11.910156 128.789062 C 11.667969 128.949219 11.410156 129.089844 11.140625 129.199219 C 10.867188 129.3125 10.589844 129.398438 10.300781 129.453125 C 10.015625 129.511719 9.722656 129.539062 9.429688 129.539062 C 9.136719 129.539062 8.847656 129.511719 8.558594 129.453125 C 8.269531 129.398438 7.992188 129.3125 7.722656 129.199219 C 7.449219 129.089844 7.191406 128.949219 6.949219 128.789062 C 6.703125 128.625 6.480469 128.441406 6.273438 128.230469 C 6.0625 128.023438 5.878906 127.800781 5.714844 127.554688 C 5.554688 127.3125 5.414062 127.054688 5.304688 126.78125 C 5.191406 126.511719 5.105469 126.234375 5.050781 125.945312 C 4.992188 125.65625 4.964844 125.367188 4.964844 125.074219 Z M 4.964844 116.140625 " fill-opacity="1" fill-rule="nonzero"/></g><g clip-path="url(#8ae117e0bb)"><path fill="#00ff41" d="M 31.765625 107.207031 L 36.230469 107.207031 L 36.230469 134.007812 L 31.765625 134.007812 Z M 31.765625 107.207031 " fill-opacity="1" fill-rule="nonzero"/></g><g clip-path="url(#4eaa294cac)"><path fill="#00ff41" d="M 58.566406 134.007812 C 59.152344 134.007812 59.734375 133.949219 60.308594 133.835938 C 60.882812 133.722656 61.441406 133.550781 61.984375 133.328125 C 62.527344 133.101562 63.042969 132.828125 63.53125 132.5 C 64.015625 132.175781 64.46875 131.804688 64.882812 131.390625 C 65.296875 130.976562 65.667969 130.523438 65.996094 130.035156 C 66.320312 129.550781 66.59375 129.035156 66.820312 128.492188 C 67.042969 127.949219 67.214844 127.390625 67.328125 126.816406 C 67.441406 126.242188 67.5 125.660156 67.5 125.074219 L 67.5 116.140625 C 67.5 115.554688 67.441406 114.972656 67.328125 114.398438 C 67.214844 113.820312 67.042969 113.261719 66.820312 112.722656 C 66.59375 112.179688 66.320312 111.664062 65.996094 111.175781 C 65.667969 110.6875 65.296875 110.238281 64.882812 109.824219 C 64.46875 109.40625 64.015625 109.039062 63.53125 108.710938 C 63.042969 108.386719 62.527344 108.109375 61.984375 107.886719 C 61.441406 107.660156 60.882812 107.492188 60.308594 107.378906 C 59.734375 107.261719 59.152344 107.207031 58.566406 107.207031 C 57.980469 107.207031 57.398438 107.261719 56.824219 107.378906 C 56.246094 107.492188 55.6875 107.660156 55.148438 107.886719 C 54.605469 108.109375 54.089844 108.386719 53.601562 108.710938 C 53.113281 109.039062 52.664062 109.40625 52.25 109.824219 C 51.835938 110.238281 51.464844 110.6875 51.136719 111.175781 C 50.8125 111.664062 50.535156 112.179688 50.3125 112.722656 C 50.089844 113.261719 49.917969 113.820312 49.804688 114.398438 C 49.691406 114.972656 49.632812 115.554688 49.632812 116.140625 L 49.632812 125.074219 C 49.632812 125.660156 49.691406 126.242188 49.804688 126.816406 C 49.917969 127.390625 50.089844 127.949219 50.3125 128.492188 C 50.535156 129.035156 50.8125 129.550781 51.136719 130.035156 C 51.464844 130.523438 51.835938 130.976562 52.25 131.390625 C 52.664062 131.804688 53.113281 132.175781 53.601562 132.5 C 54.089844 132.828125 54.605469 133.101562 55.148438 133.328125 C 55.6875 133.550781 56.246094 133.722656 56.824219 133.835938 C 57.398438 133.949219 57.980469 134.007812 58.566406 134.007812 Z M 54.097656 116.140625 C 54.097656 115.847656 54.128906 115.554688 54.183594 115.269531 C 54.242188 114.980469 54.328125 114.703125 54.4375 114.429688 C 54.550781 114.160156 54.6875 113.902344 54.851562 113.65625 C 55.015625 113.414062 55.199219 113.1875 55.40625 112.980469 C 55.613281 112.773438 55.839844 112.589844 56.085938 112.425781 C 56.328125 112.261719 56.585938 112.125 56.855469 112.011719 C 57.128906 111.902344 57.40625 111.816406 57.695312 111.757812 C 57.980469 111.703125 58.273438 111.671875 58.566406 111.671875 C 58.859375 111.671875 59.148438 111.703125 59.4375 111.757812 C 59.726562 111.816406 60.003906 111.902344 60.277344 112.011719 C 60.546875 112.125 60.804688 112.261719 61.046875 112.425781 C 61.292969 112.589844 61.515625 112.773438 61.726562 112.980469 C 61.933594 113.1875 62.117188 113.414062 62.28125 113.65625 C 62.441406 113.902344 62.582031 114.160156 62.691406 114.429688 C 62.804688 114.703125 62.890625 114.980469 62.945312 115.269531 C 63.003906 115.554688 63.03125 115.847656 63.03125 116.140625 L 63.03125 125.074219 C 63.03125 125.367188 63.003906 125.65625 62.945312 125.945312 C 62.890625 126.234375 62.804688 126.511719 62.691406 126.78125 C 62.582031 127.054688 62.441406 127.3125 62.28125 127.554688 C 62.117188 127.800781 61.933594 128.023438 61.726562 128.230469 C 61.515625 128.441406 61.292969 128.625 61.046875 128.789062 C 60.804688 128.949219 60.546875 129.089844 60.277344 129.199219 C 60.003906 129.3125 59.726562 129.398438 59.4375 129.453125 C 59.148438 129.511719 58.859375 129.539062 58.566406 129.539062 C 58.273438 129.539062 57.980469 129.511719 57.695312 129.453125 C 57.40625 129.398438 57.128906 129.3125 56.855469 129.199219 C 56.585938 129.089844 56.328125 128.949219 56.085938 128.789062 C 55.839844 128.625 55.613281 128.441406 55.40625 128.230469 C 55.199219 128.023438 55.015625 127.800781 54.851562 127.554688 C 54.6875 127.3125 54.550781 127.054688 54.4375 126.78125 C 54.328125 126.511719 54.242188 126.234375 54.183594 125.945312 C 54.128906 125.65625 54.097656 125.367188 54.097656 125.074219 Z M 54.097656 116.140625 " fill-opacity="1" fill-rule="nonzero"/></g><g clip-path="url(#518b600090)"><path fill="#00ff41" d="M 80.902344 107.207031 L 85.367188 107.207031 L 85.367188 134.007812 L 80.902344 134.007812 Z M 80.902344 107.207031 " fill-opacity="1" fill-rule="nonzero"/></g><g clip-path="url(#8add114390)"><path fill="#00ff41" d="M 130.035156 107.207031 L 134.503906 107.207031 L 134.503906 134.007812 L 130.035156 134.007812 Z M 130.035156 107.207031 " fill-opacity="1" fill-rule="nonzero"/></g><g clip-path="url(#caace856d4)"><path fill="#00ff41" d="M 107.703125 134.007812 C 108.289062 134.007812 108.871094 133.949219 109.445312 133.835938 C 110.019531 133.722656 110.578125 133.550781 111.121094 133.328125 C 111.664062 133.101562 112.179688 132.828125 112.664062 132.5 C 113.152344 132.175781 113.605469 131.804688 114.019531 131.390625 C 114.433594 130.976562 114.804688 130.523438 115.128906 130.035156 C 115.457031 129.550781 115.730469 129.035156 115.957031 128.492188 C 116.179688 127.949219 116.351562 127.390625 116.464844 126.816406 C 116.578125 126.242188 116.636719 125.660156 116.636719 125.074219 L 116.636719 116.140625 C 116.636719 115.554688 116.578125 114.972656 116.464844 114.398438 C 116.351562 113.820312 116.179688 113.261719 115.957031 112.722656 C 115.730469 112.179688 115.457031 111.664062 115.128906 111.175781 C 114.804688 110.6875 114.433594 110.238281 114.019531 109.824219 C 113.605469 109.40625 113.152344 109.039062 112.664062 108.710938 C 112.179688 108.386719 111.664062 108.109375 111.121094 107.886719 C 110.578125 107.660156 110.019531 107.492188 109.445312 107.378906 C 108.871094 107.261719 108.289062 107.207031 107.703125 107.207031 C 107.117188 107.207031 106.535156 107.261719 105.960938 107.378906 C 105.382812 107.492188 104.824219 107.660156 104.285156 107.886719 C 103.742188 108.109375 103.226562 108.386719 102.738281 108.710938 C 102.25 109.039062 101.800781 109.40625 101.386719 109.824219 C 100.96875 110.238281 100.601562 110.6875 100.273438 111.175781 C 99.949219 111.664062 99.671875 112.179688 99.449219 112.722656 C 99.222656 113.261719 99.054688 113.820312 98.941406 114.398438 C 98.824219 114.972656 98.769531 115.554688 98.769531 116.140625 L 98.769531 125.074219 C 98.769531 125.660156 98.824219 126.242188 98.941406 126.816406 C 99.054688 127.390625 99.222656 127.949219 99.449219 128.492188 C 99.671875 129.035156 99.949219 129.550781 100.273438 130.035156 C 100.601562 130.523438 100.96875 130.976562 101.386719 131.390625 C 101.800781 131.804688 102.25 132.175781 102.738281 132.5 C 103.226562 132.828125 103.742188 133.101562 104.285156 133.328125 C 104.824219 133.550781 105.382812 133.722656 105.960938 133.835938 C 106.535156 133.949219 107.117188 134.007812 107.703125 134.007812 Z M 103.234375 116.140625 C 103.234375 115.847656 103.265625 115.554688 103.320312 115.269531 C 103.378906 114.980469 103.464844 114.703125 103.574219 114.429688 C 103.6875 114.160156 103.824219 113.902344 103.988281 113.65625 C 104.152344 113.414062 104.335938 113.1875 104.542969 112.980469 C 104.75 112.773438 104.976562 112.589844 105.21875 112.425781 C 105.464844 112.261719 105.722656 112.125 105.992188 112.011719 C 106.265625 111.902344 106.542969 111.816406 106.832031 111.757812 C 107.117188 111.703125 107.410156 111.671875 107.703125 111.671875 C 107.996094 111.671875 108.285156 111.703125 108.574219 111.757812 C 108.859375 111.816406 109.140625 111.902344 109.410156 112.011719 C 109.683594 112.125 109.941406 112.261719 110.183594 112.425781 C 110.429688 112.589844 110.652344 112.773438 110.859375 112.980469 C 111.066406 113.1875 111.253906 113.414062 111.417969 113.65625 C 111.578125 113.902344 111.71875 114.160156 111.828125 114.429688 C 111.941406 114.703125 112.027344 114.980469 112.082031 115.269531 C 112.140625 115.554688 112.167969 115.847656 112.167969 116.140625 L 112.167969 125.074219 C 112.167969 125.367188 112.140625 125.65625 112.082031 125.945312 C 112.027344 126.234375 111.941406 126.511719 111.828125 126.78125 C 111.71875 127.054688 111.578125 127.3125 111.417969 127.554688 C 111.253906 127.800781 111.066406 128.023438 110.859375 128.230469 C 110.652344 128.441406 110.429688 128.625 110.183594 128.789062 C 109.941406 128.949219 109.683594 129.089844 109.410156 129.199219 C 109.140625 129.3125 108.859375 129.398438 108.574219 129.453125 C 108.285156 129.511719 107.996094 129.539062 107.703125 129.539062 C 107.410156 129.539062 107.117188 129.511719 106.832031 129.453125 C 106.542969 129.398438 106.265625 129.3125 105.992188 129.199219 C 105.722656 129.089844 105.464844 128.949219 105.21875 128.789062 C 104.976562 128.625 104.75 128.441406 104.542969 128.230469 C 104.335938 128.023438 104.152344 127.800781 103.988281 127.554688 C 103.824219 127.3125 103.6875 127.054688 103.574219 126.78125 C 103.464844 126.511719 103.378906 126.234375 103.320312 125.945312 C 103.265625 125.65625 103.234375 125.367188 103.234375 125.074219 Z M 103.234375 116.140625 " fill-opacity="1" fill-rule="nonzero"/></g></svg>