<svg xmlns="http://www.w3.org/2000/svg" xmlns:xlink="http://www.w3.org/1999/xlink" width="192" zoomAndPan="magnify" viewBox="0 0 144 143.999998" height="192" preserveAspectRatio="xMidYMid meet" version="1.0"><path fill="#00ff41" d="M 0 0 L 4.800781 0 L 4.800781 28.800781 L 0 28.800781 Z M 0 0 " fill-opacity="1" fill-rule="nonzero"/><path fill="#00ff41" d="M 28.800781 28.800781 C 29.429688 28.800781 30.054688 28.738281 30.671875 28.617188 C 31.292969 28.492188 31.890625 28.308594 32.472656 28.070312 C 33.054688 27.828125 33.609375 27.53125 34.132812 27.183594 C 34.65625 26.832031 35.140625 26.433594 35.589844 25.988281 C 36.035156 25.542969 36.433594 25.058594 36.78125 24.535156 C 37.132812 24.007812 37.429688 23.457031 37.667969 22.875 C 37.910156 22.292969 38.09375 21.691406 38.214844 21.074219 C 38.339844 20.453125 38.398438 19.832031 38.398438 19.199219 L 38.398438 9.601562 C 38.398438 8.96875 38.339844 8.34375 38.214844 7.726562 C 38.09375 7.109375 37.910156 6.507812 37.667969 5.925781 C 37.429688 5.34375 37.132812 4.789062 36.78125 4.265625 C 36.433594 3.742188 36.035156 3.257812 35.589844 2.8125 C 35.140625 2.367188 34.65625 1.96875 34.132812 1.617188 C 33.609375 1.269531 33.054688 0.972656 32.472656 0.730469 C 31.890625 0.488281 31.292969 0.308594 30.671875 0.183594 C 30.054688 0.0625 29.429688 0 28.800781 0 C 28.167969 0 27.546875 0.0625 26.925781 0.183594 C 26.308594 0.308594 25.707031 0.488281 25.125 0.730469 C 24.542969 0.972656 23.992188 1.269531 23.464844 1.617188 C 22.941406 1.96875 22.457031 2.367188 22.011719 2.8125 C 21.566406 3.257812 21.167969 3.742188 20.816406 4.265625 C 20.46875 4.789062 20.171875 5.34375 19.929688 5.925781 C 19.691406 6.507812 19.507812 7.109375 19.382812 7.726562 C 19.261719 8.34375 19.199219 8.96875 19.199219 9.601562 L 19.199219 19.199219 C 19.199219 19.832031 19.261719 20.453125 19.382812 21.074219 C 19.507812 21.691406 19.691406 22.292969 19.929688 22.875 C 20.171875 23.457031 20.46875 24.007812 20.816406 24.535156 C 21.167969 25.058594 21.566406 25.542969 22.011719 25.988281 C 22.457031 26.433594 22.941406 26.832031 23.464844 27.183594 C 23.992188 27.53125 24.542969 27.828125 25.125 28.070312 C 25.707031 28.308594 26.308594 28.492188 26.925781 28.617188 C 27.546875 28.738281 28.167969 28.800781 28.800781 28.800781 Z M 24 9.601562 C 24 9.285156 24.03125 8.972656 24.09375 8.664062 C 24.152344 8.355469 24.246094 8.054688 24.367188 7.761719 C 24.484375 7.472656 24.632812 7.195312 24.808594 6.933594 C 24.984375 6.671875 25.183594 6.429688 25.40625 6.207031 C 25.628906 5.984375 25.871094 5.785156 26.132812 5.609375 C 26.394531 5.433594 26.671875 5.285156 26.964844 5.164062 C 27.253906 5.042969 27.554688 4.953125 27.863281 4.890625 C 28.171875 4.832031 28.484375 4.800781 28.800781 4.800781 C 29.113281 4.800781 29.425781 4.832031 29.738281 4.890625 C 30.046875 4.953125 30.34375 5.042969 30.636719 5.164062 C 30.929688 5.285156 31.203125 5.433594 31.464844 5.609375 C 31.730469 5.785156 31.972656 5.984375 32.195312 6.207031 C 32.417969 6.429688 32.617188 6.671875 32.792969 6.933594 C 32.964844 7.195312 33.113281 7.472656 33.234375 7.761719 C 33.355469 8.054688 33.445312 8.355469 33.507812 8.664062 C 33.570312 8.972656 33.601562 9.285156 33.601562 9.601562 L 33.601562 19.199219 C 33.601562 19.515625 33.570312 19.828125 33.507812 20.136719 C 33.445312 20.445312 33.355469 20.746094 33.234375 21.035156 C 33.113281 21.328125 32.964844 21.605469 32.792969 21.867188 C 32.617188 22.128906 32.417969 22.371094 32.195312 22.59375 C 31.972656 22.816406 31.730469 23.015625 31.464844 23.191406 C 31.203125 23.367188 30.929688 23.515625 30.636719 23.632812 C 30.34375 23.753906 30.046875 23.847656 29.738281 23.90625 C 29.425781 23.96875 29.113281 24 28.800781 24 C 28.484375 24 28.171875 23.96875 27.863281 23.90625 C 27.554688 23.847656 27.253906 23.753906 26.964844 23.632812 C 26.671875 23.515625 26.394531 23.367188 26.132812 23.191406 C 25.871094 23.015625 25.628906 22.816406 25.40625 22.59375 C 25.183594 22.371094 24.984375 22.128906 24.808594 21.867188 C 24.632812 21.605469 24.484375 21.328125 24.367188 21.035156 C 24.246094 20.746094 24.152344 20.445312 24.09375 20.136719 C 24.03125 19.828125 24 19.515625 24 19.199219 Z M 24 9.601562 " fill-opacity="1" fill-rule="nonzero"/><path fill="#00ff41" d="M 52.800781 0 L 57.601562 0 L 57.601562 28.800781 L 52.800781 28.800781 Z M 52.800781 0 " fill-opacity="1" fill-rule="nonzero"/><path fill="#00ff41" d="M 81.601562 28.800781 C 82.230469 28.800781 82.855469 28.738281 83.472656 28.617188 C 84.089844 28.492188 84.691406 28.308594 85.273438 28.070312 C 85.855469 27.828125 86.410156 27.53125 86.933594 27.183594 C 87.457031 26.832031 87.941406 26.433594 88.386719 25.988281 C 88.832031 25.542969 89.230469 25.058594 89.582031 24.535156 C 89.933594 24.007812 90.226562 23.457031 90.46875 22.875 C 90.710938 22.292969 90.890625 21.691406 91.015625 21.074219 C 91.136719 20.453125 91.199219 19.832031 91.199219 19.199219 L 91.199219 9.601562 C 91.199219 8.96875 91.136719 8.34375 91.015625 7.726562 C 90.890625 7.109375 90.710938 6.507812 90.46875 5.925781 C 90.226562 5.34375 89.933594 4.789062 89.582031 4.265625 C 89.230469 3.742188 88.832031 3.257812 88.386719 2.8125 C 87.941406 2.367188 87.457031 1.96875 86.933594 1.617188 C 86.410156 1.269531 85.855469 0.972656 85.273438 0.730469 C 84.691406 0.488281 84.089844 0.308594 83.472656 0.183594 C 82.855469 0.0625 82.230469 0 81.601562 0 C 80.96875 0 80.34375 0.0625 79.726562 0.183594 C 79.109375 0.308594 78.507812 0.488281 77.925781 0.730469 C 77.34375 0.972656 76.789062 1.269531 76.265625 1.617188 C 75.742188 1.96875 75.257812 2.367188 74.8125 2.8125 C 74.367188 3.257812 73.96875 3.742188 73.617188 4.265625 C 73.269531 4.789062 72.972656 5.34375 72.730469 5.925781 C 72.488281 6.507812 72.308594 7.109375 72.183594 7.726562 C 72.0625 8.34375 72 8.96875 72 9.601562 L 72 19.199219 C 72 19.832031 72.0625 20.453125 72.183594 21.074219 C 72.308594 21.691406 72.488281 22.292969 72.730469 22.875 C 72.972656 23.457031 73.269531 24.007812 73.617188 24.535156 C 73.96875 25.058594 74.367188 25.542969 74.8125 25.988281 C 75.257812 26.433594 75.742188 26.832031 76.265625 27.183594 C 76.789062 27.53125 77.34375 27.828125 77.925781 28.070312 C 78.507812 28.308594 79.109375 28.492188 79.726562 28.617188 C 80.34375 28.738281 80.96875 28.800781 81.601562 28.800781 Z M 76.800781 9.601562 C 76.800781 9.285156 76.832031 8.972656 76.890625 8.664062 C 76.953125 8.355469 77.042969 8.054688 77.164062 7.761719 C 77.285156 7.472656 77.433594 7.195312 77.609375 6.933594 C 77.785156 6.671875 77.984375 6.429688 78.207031 6.207031 C 78.429688 5.984375 78.671875 5.785156 78.933594 5.609375 C 79.195312 5.433594 79.472656 5.285156 79.761719 5.164062 C 80.054688 5.042969 80.355469 4.953125 80.664062 4.890625 C 80.972656 4.832031 81.285156 4.800781 81.601562 4.800781 C 81.914062 4.800781 82.226562 4.832031 82.535156 4.890625 C 82.84375 4.953125 83.144531 5.042969 83.4375 5.164062 C 83.726562 5.285156 84.003906 5.433594 84.265625 5.609375 C 84.527344 5.785156 84.769531 5.984375 84.992188 6.207031 C 85.21875 6.429688 85.414062 6.671875 85.589844 6.933594 C 85.765625 7.195312 85.914062 7.472656 86.035156 7.761719 C 86.15625 8.054688 86.246094 8.355469 86.308594 8.664062 C 86.371094 8.972656 86.398438 9.285156 86.398438 9.601562 L 86.398438 19.199219 C 86.398438 19.515625 86.371094 19.828125 86.308594 20.136719 C 86.246094 20.445312 86.15625 20.746094 86.035156 21.035156 C 85.914062 21.328125 85.765625 21.605469 85.589844 21.867188 C 85.414062 22.128906 85.21875 22.371094 84.992188 22.59375 C 84.769531 22.816406 84.527344 23.015625 84.265625 23.191406 C 84.003906 23.367188 83.726562 23.515625 83.4375 23.632812 C 83.144531 23.753906 82.84375 23.847656 82.535156 23.90625 C 82.226562 23.96875 81.914062 24 81.601562 24 C 81.285156 24 80.972656 23.96875 80.664062 23.90625 C 80.355469 23.847656 80.054688 23.753906 79.761719 23.632812 C 79.472656 23.515625 79.195312 23.367188 78.933594 23.191406 C 78.671875 23.015625 78.429688 22.816406 78.207031 22.59375 C 77.984375 22.371094 77.785156 22.128906 77.609375 21.867188 C 77.433594 21.605469 77.285156 21.328125 77.164062 21.035156 C 77.042969 20.746094 76.953125 20.445312 76.890625 20.136719 C 76.832031 19.828125 76.800781 19.515625 76.800781 19.199219 Z M 76.800781 9.601562 " fill-opacity="1" fill-rule="nonzero"/><path fill="#00ff41" d="M 105.601562 0 L 110.398438 0 L 110.398438 28.800781 L 105.601562 28.800781 Z M 105.601562 0 " fill-opacity="1" fill-rule="nonzero"/><path fill="#00ff41" d="M 134.398438 0 C 133.769531 0 133.144531 0.0625 132.527344 0.183594 C 131.910156 0.308594 131.308594 0.488281 130.726562 0.730469 C 130.144531 0.972656 129.589844 1.269531 129.066406 1.617188 C 128.542969 1.96875 128.058594 2.367188 127.613281 2.8125 C 127.167969 3.257812 126.769531 3.742188 126.417969 4.265625 C 126.066406 4.789062 125.773438 5.34375 125.53125 5.925781 C 125.289062 6.507812 125.109375 7.109375 124.984375 7.726562 C 124.863281 8.34375 124.800781 8.96875 124.800781 9.601562 L 124.800781 19.199219 C 124.800781 19.832031 124.863281 20.453125 124.984375 21.074219 C 125.105469 21.691406 125.289062 22.292969 125.53125 22.875 C 125.773438 23.457031 126.066406 24.007812 126.417969 24.535156 C 126.769531 25.058594 127.167969 25.542969 127.613281 25.988281 C 128.058594 26.433594 128.542969 26.832031 129.066406 27.183594 C 129.589844 27.53125 130.144531 27.828125 130.726562 28.070312 C 131.308594 28.308594 131.910156 28.492188 132.527344 28.617188 C 133.144531 28.738281 133.769531 28.800781 134.398438 28.800781 C 135.03125 28.800781 135.65625 28.738281 136.273438 28.617188 C 136.890625 28.492188 137.492188 28.308594 138.074219 28.070312 C 138.65625 27.828125 139.210938 27.53125 139.734375 27.183594 C 140.257812 26.832031 140.742188 26.433594 141.1875 25.988281 C 141.632812 25.542969 142.03125 25.058594 142.382812 24.535156 C 142.730469 24.007812 143.027344 23.457031 143.269531 22.875 C 143.511719 22.292969 143.691406 21.691406 143.816406 21.074219 C 143.9375 20.453125 144 19.832031 144 19.199219 L 144 9.601562 C 144 8.96875 143.9375 8.34375 143.816406 7.726562 C 143.691406 7.109375 143.511719 6.507812 143.269531 5.925781 C 143.027344 5.34375 142.730469 4.789062 142.382812 4.265625 C 142.03125 3.742188 141.632812 3.257812 141.1875 2.8125 C 140.742188 2.367188 140.257812 1.96875 139.734375 1.617188 C 139.210938 1.269531 138.65625 0.972656 138.074219 0.730469 C 137.492188 0.488281 136.890625 0.308594 136.273438 0.183594 C 135.65625 0.0625 135.03125 0 134.398438 0 Z M 139.199219 19.199219 C 139.199219 19.515625 139.167969 19.828125 139.109375 20.136719 C 139.046875 20.445312 138.957031 20.746094 138.835938 21.035156 C 138.714844 21.328125 138.566406 21.605469 138.390625 21.867188 C 138.214844 22.128906 138.015625 22.371094 137.792969 22.59375 C 137.570312 22.816406 137.328125 23.015625 137.066406 23.191406 C 136.804688 23.367188 136.527344 23.515625 136.238281 23.632812 C 135.945312 23.753906 135.644531 23.847656 135.335938 23.90625 C 135.027344 23.96875 134.714844 24 134.398438 24 C 134.085938 24 133.773438 23.96875 133.464844 23.90625 C 133.15625 23.847656 132.855469 23.753906 132.5625 23.632812 C 132.273438 23.515625 131.996094 23.367188 131.734375 23.191406 C 131.472656 23.015625 131.230469 22.816406 131.007812 22.59375 C 130.78125 22.371094 130.585938 22.128906 130.410156 21.867188 C 130.234375 21.605469 130.085938 21.328125 129.964844 21.035156 C 129.84375 20.746094 129.753906 20.445312 129.691406 20.136719 C 129.628906 19.828125 129.601562 19.515625 129.601562 19.199219 L 129.601562 9.601562 C 129.601562 9.285156 129.628906 8.972656 129.691406 8.664062 C 129.753906 8.355469 129.84375 8.054688 129.964844 7.761719 C 130.085938 7.472656 130.234375 7.195312 130.410156 6.933594 C 130.585938 6.671875 130.78125 6.429688 131.007812 6.207031 C 131.230469 5.984375 131.472656 5.785156 131.734375 5.609375 C 131.996094 5.433594 132.273438 5.285156 132.5625 5.164062 C 132.855469 5.042969 133.15625 4.953125 133.464844 4.890625 C 133.773438 4.832031 134.085938 4.800781 134.398438 4.800781 C 134.714844 4.800781 135.027344 4.832031 135.335938 4.890625 C 135.644531 4.953125 135.945312 5.042969 136.238281 5.164062 C 136.527344 5.285156 136.804688 5.433594 137.066406 5.609375 C 137.328125 5.785156 137.570312 5.984375 137.792969 6.207031 C 138.015625 6.429688 138.214844 6.671875 138.390625 6.933594 C 138.566406 7.195312 138.714844 7.472656 138.835938 7.761719 C 138.957031 8.054688 139.046875 8.355469 139.109375 8.664062 C 139.167969 8.972656 139.199219 9.285156 139.199219 9.601562 Z M 139.199219 19.199219 " fill-opacity="1" fill-rule="nonzero"/><path fill="#00ff41" d="M 0 76.800781 L 4.800781 76.800781 L 4.800781 105.601562 L 0 105.601562 Z M 0 76.800781 " fill-opacity="1" fill-rule="nonzero"/><path fill="#00ff41" d="M 19.199219 86.398438 L 19.199219 96 C 19.199219 96.628906 19.261719 97.253906 19.382812 97.871094 C 19.507812 98.492188 19.691406 99.089844 19.929688 99.671875 C 20.171875 100.257812 20.46875 100.808594 20.816406 101.332031 C 21.167969 101.859375 21.566406 102.34375 22.011719 102.789062 C 22.457031 103.234375 22.941406 103.632812 23.464844 103.980469 C 23.992188 104.332031 24.542969 104.628906 25.125 104.871094 C 25.707031 105.109375 26.308594 105.292969 26.925781 105.414062 C 27.546875 105.539062 28.167969 105.601562 28.800781 105.601562 C 29.429688 105.601562 30.054688 105.539062 30.671875 105.414062 C 31.292969 105.292969 31.890625 105.109375 32.472656 104.871094 C 33.054688 104.628906 33.609375 104.332031 34.132812 103.980469 C 34.65625 103.632812 35.140625 103.234375 35.589844 102.789062 C 36.035156 102.34375 36.433594 101.859375 36.78125 101.332031 C 37.132812 100.808594 37.429688 100.257812 37.667969 99.671875 C 37.910156 99.089844 38.09375 98.492188 38.214844 97.871094 C 38.339844 97.253906 38.398438 96.628906 38.398438 96 L 38.398438 86.398438 C 38.398438 85.769531 38.339844 85.144531 38.214844 84.527344 C 38.09375 83.910156 37.910156 83.308594 37.667969 82.726562 C 37.429688 82.144531 37.132812 81.589844 36.78125 81.066406 C 36.433594 80.542969 36.035156 80.058594 35.589844 79.613281 C 35.140625 79.167969 34.65625 78.769531 34.132812 78.417969 C 33.609375 78.066406 33.054688 77.773438 32.472656 77.53125 C 31.890625 77.289062 31.292969 77.109375 30.671875 76.984375 C 30.054688 76.863281 29.429688 76.800781 28.800781 76.800781 C 28.167969 76.800781 27.546875 76.863281 26.925781 76.984375 C 26.308594 77.109375 25.707031 77.289062 25.125 77.53125 C 24.542969 77.773438 23.992188 78.066406 23.464844 78.417969 C 22.941406 78.769531 22.457031 79.167969 22.011719 79.613281 C 21.566406 80.058594 21.167969 80.542969 20.816406 81.066406 C 20.46875 81.589844 20.171875 82.144531 19.929688 82.726562 C 19.691406 83.308594 19.507812 83.910156 19.382812 84.527344 C 19.261719 85.144531 19.199219 85.769531 19.199219 86.398438 Z M 33.601562 86.398438 L 33.601562 96 C 33.601562 96.316406 33.570312 96.628906 33.507812 96.9375 C 33.445312 97.246094 33.355469 97.546875 33.234375 97.835938 C 33.113281 98.128906 32.964844 98.40625 32.792969 98.667969 C 32.617188 98.929688 32.417969 99.171875 32.195312 99.394531 C 31.972656 99.617188 31.730469 99.816406 31.464844 99.992188 C 31.203125 100.167969 30.929688 100.3125 30.636719 100.433594 C 30.34375 100.554688 30.046875 100.644531 29.738281 100.707031 C 29.425781 100.769531 29.113281 100.800781 28.800781 100.800781 C 28.484375 100.800781 28.171875 100.769531 27.863281 100.707031 C 27.554688 100.644531 27.253906 100.554688 26.964844 100.433594 C 26.671875 100.3125 26.394531 100.167969 26.132812 99.992188 C 25.871094 99.816406 25.628906 99.617188 25.40625 99.394531 C 25.183594 99.171875 24.984375 98.929688 24.808594 98.667969 C 24.632812 98.40625 24.484375 98.128906 24.367188 97.835938 C 24.246094 97.546875 24.152344 97.246094 24.09375 96.9375 C 24.03125 96.628906 24 96.316406 24 96 L 24 86.398438 C 24 86.085938 24.03125 85.773438 24.09375 85.464844 C 24.152344 85.15625 24.246094 84.855469 24.367188 84.5625 C 24.484375 84.273438 24.632812 83.996094 24.808594 83.734375 C 24.984375 83.472656 25.183594 83.230469 25.40625 83.007812 C 25.628906 82.78125 25.871094 82.585938 26.132812 82.410156 C 26.394531 82.234375 26.671875 82.085938 26.964844 81.964844 C 27.253906 81.84375 27.554688 81.753906 27.863281 81.691406 C 28.171875 81.628906 28.484375 81.601562 28.800781 81.601562 C 29.113281 81.601562 29.425781 81.628906 29.738281 81.691406 C 30.046875 81.753906 30.34375 81.84375 30.636719 81.964844 C 30.929688 82.085938 31.203125 82.234375 31.464844 82.410156 C 31.730469 82.585938 31.972656 82.78125 32.195312 83.007812 C 32.417969 83.230469 32.617188 83.472656 32.792969 83.734375 C 32.964844 83.996094 33.113281 84.273438 33.234375 84.5625 C 33.355469 84.855469 33.445312 85.15625 33.507812 85.464844 C 33.570312 85.773438 33.601562 86.085938 33.601562 86.398438 Z M 33.601562 86.398438 " fill-opacity="1" fill-rule="nonzero"/><path fill="#00ff41" d="M 52.800781 76.800781 L 57.601562 76.800781 L 57.601562 105.601562 L 52.800781 105.601562 Z M 52.800781 76.800781 " fill-opacity="1" fill-rule="nonzero"/><path fill="#00ff41" d="M 72 86.398438 L 72 96 C 72 96.628906 72.0625 97.253906 72.183594 97.871094 C 72.308594 98.492188 72.488281 99.089844 72.730469 99.671875 C 72.972656 100.257812 73.269531 100.808594 73.617188 101.332031 C 73.96875 101.859375 74.367188 102.34375 74.8125 102.789062 C 75.257812 103.234375 75.742188 103.632812 76.265625 103.980469 C 76.789062 104.332031 77.34375 104.628906 77.925781 104.871094 C 78.507812 105.109375 79.109375 105.292969 79.726562 105.414062 C 80.34375 105.539062 80.96875 105.601562 81.601562 105.601562 C 82.230469 105.601562 82.855469 105.539062 83.472656 105.414062 C 84.089844 105.292969 84.691406 105.109375 85.273438 104.871094 C 85.855469 104.628906 86.410156 104.332031 86.933594 103.980469 C 87.457031 103.632812 87.941406 103.234375 88.386719 102.789062 C 88.832031 102.34375 89.230469 101.859375 89.582031 101.332031 C 89.933594 100.808594 90.226562 100.257812 90.46875 99.671875 C 90.710938 99.089844 90.890625 98.492188 91.015625 97.871094 C 91.136719 97.253906 91.199219 96.628906 91.199219 96 L 91.199219 86.398438 C 91.199219 85.769531 91.136719 85.144531 91.015625 84.527344 C 90.890625 83.910156 90.710938 83.308594 90.46875 82.726562 C 90.226562 82.144531 89.933594 81.589844 89.582031 81.066406 C 89.230469 80.542969 88.832031 80.058594 88.386719 79.613281 C 87.941406 79.167969 87.457031 78.769531 86.933594 78.417969 C 86.410156 78.066406 85.855469 77.773438 85.273438 77.53125 C 84.691406 77.289062 84.089844 77.109375 83.472656 76.984375 C 82.855469 76.863281 82.230469 76.800781 81.601562 76.800781 C 80.96875 76.800781 80.34375 76.863281 79.726562 76.984375 C 79.109375 77.109375 78.507812 77.289062 77.925781 77.53125 C 77.34375 77.773438 76.789062 78.066406 76.265625 78.417969 C 75.742188 78.769531 75.257812 79.167969 74.8125 79.613281 C 74.367188 80.058594 73.96875 80.542969 73.617188 81.066406 C 73.269531 81.589844 72.972656 82.144531 72.730469 82.726562 C 72.488281 83.308594 72.308594 83.910156 72.183594 84.527344 C 72.0625 85.144531 72 85.769531 72 86.398438 Z M 86.398438 86.398438 L 86.398438 96 C 86.398438 96.316406 86.371094 96.628906 86.308594 96.9375 C 86.246094 97.246094 86.15625 97.546875 86.035156 97.835938 C 85.914062 98.128906 85.765625 98.40625 85.589844 98.667969 C 85.414062 98.929688 85.21875 99.171875 84.992188 99.394531 C 84.769531 99.617188 84.527344 99.816406 84.265625 99.992188 C 84.003906 100.167969 83.726562 100.3125 83.4375 100.433594 C 83.144531 100.554688 82.84375 100.644531 82.535156 100.707031 C 82.226562 100.769531 81.914062 100.800781 81.601562 100.800781 C 81.285156 100.800781 80.972656 100.769531 80.664062 100.707031 C 80.355469 100.644531 80.054688 100.554688 79.761719 100.433594 C 79.472656 100.3125 79.195312 100.167969 78.933594 99.992188 C 78.671875 99.816406 78.429688 99.617188 78.207031 99.394531 C 77.984375 99.171875 77.785156 98.929688 77.609375 98.667969 C 77.433594 98.40625 77.285156 98.128906 77.164062 97.835938 C 77.042969 97.546875 76.953125 97.246094 76.890625 96.9375 C 76.832031 96.628906 76.800781 96.316406 76.800781 96 L 76.800781 86.398438 C 76.800781 86.085938 76.832031 85.773438 76.890625 85.464844 C 76.953125 85.15625 77.042969 84.855469 77.164062 84.5625 C 77.285156 84.273438 77.433594 83.996094 77.609375 83.734375 C 77.785156 83.472656 77.984375 83.230469 78.207031 83.007812 C 78.429688 82.78125 78.671875 82.585938 78.933594 82.410156 C 79.195312 82.234375 79.472656 82.085938 79.761719 81.964844 C 80.054688 81.84375 80.355469 81.753906 80.664062 81.691406 C 80.972656 81.628906 81.285156 81.601562 81.601562 81.601562 C 81.914062 81.601562 82.226562 81.628906 82.535156 81.691406 C 82.84375 81.753906 83.144531 81.84375 83.4375 81.964844 C 83.726562 82.085938 84.003906 82.234375 84.265625 82.410156 C 84.527344 82.585938 84.769531 82.78125 84.992188 83.007812 C 85.21875 83.230469 85.414062 83.472656 85.589844 83.734375 C 85.765625 83.996094 85.914062 84.273438 86.035156 84.5625 C 86.15625 84.855469 86.246094 85.15625 86.308594 85.464844 C 86.371094 85.773438 86.398438 86.085938 86.398438 86.398438 Z M 86.398438 86.398438 " fill-opacity="1" fill-rule="nonzero"/><path fill="#00ff41" d="M 105.601562 76.800781 L 110.398438 76.800781 L 110.398438 105.601562 L 105.601562 105.601562 Z M 105.601562 76.800781 " fill-opacity="1" fill-rule="nonzero"/><path fill="#00ff41" d="M 134.398438 76.800781 C 133.769531 76.800781 133.144531 76.863281 132.527344 76.984375 C 131.910156 77.109375 131.308594 77.289062 130.726562 77.53125 C 130.144531 77.773438 129.589844 78.066406 129.066406 78.417969 C 128.542969 78.769531 128.058594 79.167969 127.613281 79.613281 C 127.167969 80.058594 126.769531 80.542969 126.417969 81.066406 C 126.066406 81.589844 125.773438 82.144531 125.53125 82.726562 C 125.289062 83.308594 125.109375 83.910156 124.984375 84.527344 C 124.863281 85.144531 124.800781 85.769531 124.800781 86.398438 L 124.800781 96 C 124.800781 96.628906 124.863281 97.253906 124.984375 97.871094 C 125.105469 98.492188 125.289062 99.089844 125.53125 99.671875 C 125.773438 100.257812 126.066406 100.808594 126.417969 101.332031 C 126.769531 101.859375 127.167969 102.34375 127.613281 102.789062 C 128.058594 103.234375 128.542969 103.632812 129.066406 103.980469 C 129.589844 104.332031 130.144531 104.628906 130.726562 104.871094 C 131.308594 105.109375 131.910156 105.292969 132.527344 105.414062 C 133.144531 105.539062 133.769531 105.601562 134.398438 105.601562 C 135.03125 105.601562 135.65625 105.539062 136.273438 105.414062 C 136.890625 105.292969 137.492188 105.109375 138.074219 104.871094 C 138.65625 104.628906 139.210938 104.332031 139.734375 103.980469 C 140.257812 103.632812 140.742188 103.234375 141.1875 102.789062 C 141.632812 102.34375 142.03125 101.859375 142.382812 101.332031 C 142.730469 100.808594 143.027344 100.257812 143.269531 99.671875 C 143.511719 99.089844 143.691406 98.492188 143.816406 97.871094 C 143.9375 97.253906 144 96.628906 144 96 L 144 86.398438 C 144 85.769531 143.9375 85.144531 143.816406 84.527344 C 143.691406 83.910156 143.511719 83.308594 143.269531 82.726562 C 143.027344 82.144531 142.730469 81.589844 142.382812 81.066406 C 142.03125 80.542969 141.632812 80.058594 141.1875 79.613281 C 140.742188 79.167969 140.257812 78.769531 139.734375 78.417969 C 139.210938 78.066406 138.65625 77.773438 138.074219 77.53125 C 137.492188 77.289062 136.890625 77.109375 136.273438 76.984375 C 135.65625 76.863281 135.03125 76.800781 134.398438 76.800781 Z M 139.199219 96 C 139.199219 96.316406 139.167969 96.628906 139.109375 96.9375 C 139.046875 97.246094 138.957031 97.546875 138.835938 97.835938 C 138.714844 98.128906 138.566406 98.40625 138.390625 98.667969 C 138.214844 98.929688 138.015625 99.171875 137.792969 99.394531 C 137.570312 99.617188 137.328125 99.816406 137.066406 99.992188 C 136.804688 100.167969 136.527344 100.3125 136.238281 100.433594 C 135.945312 100.554688 135.644531 100.644531 135.335938 100.707031 C 135.027344 100.769531 134.714844 100.800781 134.398438 100.800781 C 134.085938 100.800781 133.773438 100.769531 133.464844 100.707031 C 133.15625 100.644531 132.855469 100.554688 132.5625 100.433594 C 132.273438 100.3125 131.996094 100.167969 131.734375 99.992188 C 131.472656 99.816406 131.230469 99.617188 131.007812 99.394531 C 130.78125 99.171875 130.585938 98.929688 130.410156 98.667969 C 130.234375 98.40625 130.085938 98.128906 129.964844 97.835938 C 129.84375 97.546875 129.753906 97.246094 129.691406 96.9375 C 129.628906 96.628906 129.601562 96.316406 129.601562 96 L 129.601562 86.398438 C 129.601562 86.085938 129.628906 85.773438 129.691406 85.464844 C 129.753906 85.15625 129.84375 84.855469 129.964844 84.5625 C 130.085938 84.273438 130.234375 83.996094 130.410156 83.734375 C 130.585938 83.472656 130.78125 83.230469 131.007812 83.007812 C 131.230469 82.78125 131.472656 82.585938 131.734375 82.410156 C 131.996094 82.234375 132.273438 82.085938 132.5625 81.964844 C 132.855469 81.84375 133.15625 81.753906 133.464844 81.691406 C 133.773438 81.628906 134.085938 81.601562 134.398438 81.601562 C 134.714844 81.601562 135.027344 81.628906 135.335938 81.691406 C 135.644531 81.753906 135.945312 81.84375 136.238281 81.964844 C 136.527344 82.085938 136.804688 82.234375 137.066406 82.410156 C 137.328125 82.585938 137.570312 82.78125 137.792969 83.007812 C 138.015625 83.230469 138.214844 83.472656 138.390625 83.734375 C 138.566406 83.996094 138.714844 84.273438 138.835938 84.5625 C 138.957031 84.855469 139.046875 85.15625 139.109375 85.464844 C 139.167969 85.773438 139.199219 86.085938 139.199219 86.398438 Z M 139.199219 96 " fill-opacity="1" fill-rule="nonzero"/><path fill="#00ff41" d="M 9.601562 67.199219 C 10.230469 67.199219 10.855469 67.136719 11.472656 67.015625 C 12.089844 66.890625 12.691406 66.710938 13.273438 66.46875 C 13.855469 66.226562 14.410156 65.933594 14.933594 65.582031 C 15.457031 65.230469 15.941406 64.832031 16.386719 64.386719 C 16.832031 63.941406 17.230469 63.457031 17.582031 62.933594 C 17.933594 62.410156 18.226562 61.855469 18.46875 61.273438 C 18.710938 60.691406 18.890625 60.089844 19.015625 59.472656 C 19.136719 58.855469 19.199219 58.230469 19.199219 57.601562 L 19.199219 48 C 19.199219 47.371094 19.136719 46.746094 19.015625 46.128906 C 18.890625 45.507812 18.710938 44.910156 18.46875 44.328125 C 18.226562 43.742188 17.933594 43.191406 17.582031 42.667969 C 17.230469 42.140625 16.832031 41.65625 16.386719 41.210938 C 15.941406 40.765625 15.457031 40.367188 14.933594 40.019531 C 14.410156 39.667969 13.855469 39.371094 13.273438 39.128906 C 12.691406 38.890625 12.089844 38.707031 11.472656 38.585938 C 10.855469 38.460938 10.230469 38.398438 9.601562 38.398438 C 8.96875 38.398438 8.34375 38.460938 7.726562 38.585938 C 7.109375 38.707031 6.507812 38.890625 5.925781 39.128906 C 5.34375 39.371094 4.789062 39.667969 4.265625 40.019531 C 3.742188 40.367188 3.257812 40.765625 2.8125 41.210938 C 2.367188 41.65625 1.96875 42.140625 1.617188 42.667969 C 1.269531 43.191406 0.972656 43.742188 0.730469 44.328125 C 0.488281 44.910156 0.308594 45.507812 0.183594 46.128906 C 0.0625 46.746094 0 47.371094 0 48 L 0 57.601562 C 0 58.230469 0.0625 58.855469 0.183594 59.472656 C 0.308594 60.089844 0.488281 60.691406 0.730469 61.273438 C 0.972656 61.855469 1.269531 62.410156 1.617188 62.933594 C 1.96875 63.457031 2.367188 63.941406 2.8125 64.386719 C 3.257812 64.832031 3.742188 65.230469 4.265625 65.582031 C 4.789062 65.933594 5.34375 66.226562 5.925781 66.46875 C 6.507812 66.710938 7.109375 66.890625 7.726562 67.015625 C 8.34375 67.136719 8.96875 67.199219 9.601562 67.199219 Z M 4.800781 48 C 4.800781 47.683594 4.832031 47.371094 4.890625 47.0625 C 4.953125 46.753906 5.042969 46.453125 5.164062 46.164062 C 5.285156 45.871094 5.433594 45.59375 5.609375 45.332031 C 5.785156 45.070312 5.984375 44.828125 6.207031 44.605469 C 6.429688 44.382812 6.671875 44.183594 6.933594 44.007812 C 7.195312 43.832031 7.472656 43.6875 7.761719 43.566406 C 8.054688 43.445312 8.355469 43.355469 8.664062 43.292969 C 8.972656 43.230469 9.285156 43.199219 9.601562 43.199219 C 9.914062 43.199219 10.226562 43.230469 10.535156 43.292969 C 10.84375 43.355469 11.144531 43.445312 11.4375 43.566406 C 11.726562 43.6875 12.003906 43.832031 12.265625 44.007812 C 12.527344 44.183594 12.769531 44.382812 12.992188 44.605469 C 13.21875 44.828125 13.414062 45.070312 13.589844 45.332031 C 13.765625 45.59375 13.914062 45.871094 14.035156 46.164062 C 14.15625 46.453125 14.246094 46.753906 14.308594 47.0625 C 14.371094 47.371094 14.398438 47.683594 14.398438 48 L 14.398438 57.601562 C 14.398438 57.914062 14.371094 58.226562 14.308594 58.535156 C 14.246094 58.84375 14.15625 59.144531 14.035156 59.4375 C 13.914062 59.726562 13.765625 60.003906 13.589844 60.265625 C 13.414062 60.527344 13.21875 60.769531 12.992188 60.992188 C 12.769531 61.21875 12.527344 61.414062 12.265625 61.589844 C 12.003906 61.765625 11.726562 61.914062 11.4375 62.035156 C 11.144531 62.15625 10.84375 62.246094 10.535156 62.308594 C 10.226562 62.371094 9.914062 62.398438 9.601562 62.398438 C 9.285156 62.398438 8.972656 62.371094 8.664062 62.308594 C 8.355469 62.246094 8.054688 62.15625 7.761719 62.035156 C 7.472656 61.914062 7.195312 61.765625 6.933594 61.589844 C 6.671875 61.414062 6.429688 61.21875 6.207031 60.992188 C 5.984375 60.769531 5.785156 60.527344 5.609375 60.265625 C 5.433594 60.003906 5.285156 59.726562 5.164062 59.4375 C 5.042969 59.144531 4.953125 58.84375 4.890625 58.535156 C 4.832031 58.226562 4.800781 57.914062 4.800781 57.601562 Z M 4.800781 48 " fill-opacity="1" fill-rule="nonzero"/><path fill="#00ff41" d="M 33.601562 38.398438 L 38.398438 38.398438 L 38.398438 67.199219 L 33.601562 67.199219 Z M 33.601562 38.398438 " fill-opacity="1" fill-rule="nonzero"/><path fill="#00ff41" d="M 62.398438 67.199219 C 63.03125 67.199219 63.65625 67.136719 64.273438 67.015625 C 64.890625 66.890625 65.492188 66.710938 66.074219 66.46875 C 66.65625 66.226562 67.210938 65.933594 67.734375 65.582031 C 68.257812 65.230469 68.742188 64.832031 69.1875 64.386719 C 69.632812 63.941406 70.03125 63.457031 70.382812 62.933594 C 70.730469 62.410156 71.027344 61.855469 71.269531 61.273438 C 71.511719 60.691406 71.691406 60.089844 71.816406 59.472656 C 71.9375 58.855469 72 58.230469 72 57.601562 L 72 48 C 72 47.371094 71.9375 46.746094 71.816406 46.128906 C 71.691406 45.507812 71.511719 44.910156 71.269531 44.328125 C 71.027344 43.742188 70.730469 43.191406 70.382812 42.667969 C 70.03125 42.140625 69.632812 41.65625 69.1875 41.210938 C 68.742188 40.765625 68.257812 40.367188 67.734375 40.019531 C 67.210938 39.667969 66.65625 39.371094 66.074219 39.128906 C 65.492188 38.890625 64.890625 38.707031 64.273438 38.585938 C 63.65625 38.460938 63.03125 38.398438 62.398438 38.398438 C 61.769531 38.398438 61.144531 38.460938 60.527344 38.585938 C 59.910156 38.707031 59.308594 38.890625 58.726562 39.128906 C 58.144531 39.371094 57.589844 39.667969 57.066406 40.019531 C 56.542969 40.367188 56.058594 40.765625 55.613281 41.210938 C 55.167969 41.65625 54.769531 42.140625 54.417969 42.667969 C 54.066406 43.191406 53.773438 43.742188 53.53125 44.328125 C 53.289062 44.910156 53.109375 45.507812 52.984375 46.128906 C 52.863281 46.746094 52.800781 47.371094 52.800781 48 L 52.800781 57.601562 C 52.800781 58.230469 52.863281 58.855469 52.984375 59.472656 C 53.109375 60.089844 53.289062 60.691406 53.53125 61.273438 C 53.773438 61.855469 54.066406 62.410156 54.417969 62.933594 C 54.769531 63.457031 55.167969 63.941406 55.613281 64.386719 C 56.058594 64.832031 56.542969 65.230469 57.066406 65.582031 C 57.589844 65.933594 58.144531 66.226562 58.726562 66.46875 C 59.308594 66.710938 59.910156 66.890625 60.527344 67.015625 C 61.144531 67.136719 61.769531 67.199219 62.398438 67.199219 Z M 57.601562 48 C 57.601562 47.683594 57.628906 47.371094 57.691406 47.0625 C 57.753906 46.753906 57.84375 46.453125 57.964844 46.164062 C 58.085938 45.871094 58.234375 45.59375 58.410156 45.332031 C 58.585938 45.070312 58.78125 44.828125 59.007812 44.605469 C 59.230469 44.382812 59.472656 44.183594 59.734375 44.007812 C 59.996094 43.832031 60.273438 43.6875 60.5625 43.566406 C 60.855469 43.445312 61.15625 43.355469 61.464844 43.292969 C 61.773438 43.230469 62.085938 43.199219 62.398438 43.199219 C 62.714844 43.199219 63.027344 43.230469 63.335938 43.292969 C 63.644531 43.355469 63.945312 43.445312 64.238281 43.566406 C 64.527344 43.6875 64.804688 43.832031 65.066406 44.007812 C 65.328125 44.183594 65.570312 44.382812 65.792969 44.605469 C 66.015625 44.828125 66.214844 45.070312 66.390625 45.332031 C 66.566406 45.59375 66.714844 45.871094 66.835938 46.164062 C 66.957031 46.453125 67.046875 46.753906 67.109375 47.0625 C 67.167969 47.371094 67.199219 47.683594 67.199219 48 L 67.199219 57.601562 C 67.199219 57.914062 67.167969 58.226562 67.109375 58.535156 C 67.046875 58.84375 66.957031 59.144531 66.835938 59.4375 C 66.714844 59.726562 66.566406 60.003906 66.390625 60.265625 C 66.214844 60.527344 66.015625 60.769531 65.792969 60.992188 C 65.570312 61.21875 65.328125 61.414062 65.066406 61.589844 C 64.804688 61.765625 64.527344 61.914062 64.238281 62.035156 C 63.945312 62.15625 63.644531 62.246094 63.335938 62.308594 C 63.027344 62.371094 62.714844 62.398438 62.398438 62.398438 C 62.085938 62.398438 61.773438 62.371094 61.464844 62.308594 C 61.15625 62.246094 60.855469 62.15625 60.5625 62.035156 C 60.273438 61.914062 59.996094 61.765625 59.734375 61.589844 C 59.472656 61.414062 59.230469 61.21875 59.007812 60.992188 C 58.78125 60.769531 58.585938 60.527344 58.410156 60.265625 C 58.234375 60.003906 58.085938 59.726562 57.964844 59.4375 C 57.84375 59.144531 57.753906 58.84375 57.691406 58.535156 C 57.628906 58.226562 57.601562 57.914062 57.601562 57.601562 Z M 57.601562 48 " fill-opacity="1" fill-rule="nonzero"/><path fill="#00ff41" d="M 86.398438 38.398438 L 91.199219 38.398438 L 91.199219 67.199219 L 86.398438 67.199219 Z M 86.398438 38.398438 " fill-opacity="1" fill-rule="nonzero"/><path fill="#00ff41" d="M 139.199219 38.398438 L 144 38.398438 L 144 67.199219 L 139.199219 67.199219 Z M 139.199219 38.398438 " fill-opacity="1" fill-rule="nonzero"/><path fill="#00ff41" d="M 115.199219 67.199219 C 115.832031 67.199219 116.453125 67.136719 117.074219 67.015625 C 117.691406 66.890625 118.292969 66.710938 118.875 66.46875 C 119.457031 66.226562 120.007812 65.933594 120.535156 65.582031 C 121.058594 65.230469 121.542969 64.832031 121.988281 64.386719 C 122.433594 63.941406 122.832031 63.457031 123.183594 62.933594 C 123.53125 62.410156 123.828125 61.855469 124.070312 61.273438 C 124.308594 60.691406 124.492188 60.089844 124.617188 59.472656 C 124.738281 58.855469 124.800781 58.230469 124.800781 57.601562 L 124.800781 48 C 124.800781 47.371094 124.738281 46.746094 124.617188 46.128906 C 124.492188 45.507812 124.308594 44.910156 124.070312 44.328125 C 123.828125 43.742188 123.53125 43.191406 123.183594 42.667969 C 122.832031 42.140625 122.433594 41.65625 121.988281 41.210938 C 121.542969 40.765625 121.058594 40.367188 120.535156 40.019531 C 120.007812 39.667969 119.457031 39.371094 118.875 39.128906 C 118.292969 38.890625 117.691406 38.707031 117.074219 38.585938 C 116.453125 38.460938 115.832031 38.398438 115.199219 38.398438 C 114.570312 38.398438 113.945312 38.460938 113.328125 38.585938 C 112.707031 38.707031 112.109375 38.890625 111.527344 39.128906 C 110.945312 39.371094 110.390625 39.667969 109.867188 40.019531 C 109.34375 40.367188 108.859375 40.765625 108.410156 41.210938 C 107.964844 41.65625 107.566406 42.140625 107.21875 42.667969 C 106.867188 43.191406 106.570312 43.742188 106.332031 44.328125 C 106.089844 44.910156 105.90625 45.507812 105.785156 46.128906 C 105.660156 46.746094 105.601562 47.371094 105.601562 48 L 105.601562 57.601562 C 105.601562 58.230469 105.660156 58.855469 105.785156 59.472656 C 105.90625 60.089844 106.089844 60.691406 106.332031 61.273438 C 106.570312 61.855469 106.867188 62.410156 107.21875 62.933594 C 107.566406 63.457031 107.964844 63.941406 108.410156 64.386719 C 108.859375 64.832031 109.34375 65.230469 109.867188 65.582031 C 110.390625 65.933594 110.945312 66.226562 111.527344 66.46875 C 112.109375 66.710938 112.707031 66.890625 113.328125 67.015625 C 113.945312 67.136719 114.570312 67.199219 115.199219 67.199219 Z M 110.398438 48 C 110.398438 47.683594 110.429688 47.371094 110.492188 47.0625 C 110.554688 46.753906 110.644531 46.453125 110.765625 46.164062 C 110.886719 45.871094 111.035156 45.59375 111.207031 45.332031 C 111.382812 45.070312 111.582031 44.828125 111.804688 44.605469 C 112.027344 44.382812 112.269531 44.183594 112.535156 44.007812 C 112.796875 43.832031 113.070312 43.6875 113.363281 43.566406 C 113.652344 43.445312 113.953125 43.355469 114.261719 43.292969 C 114.574219 43.230469 114.886719 43.199219 115.199219 43.199219 C 115.515625 43.199219 115.828125 43.230469 116.136719 43.292969 C 116.445312 43.355469 116.746094 43.445312 117.035156 43.566406 C 117.328125 43.6875 117.605469 43.832031 117.867188 44.007812 C 118.128906 44.183594 118.371094 44.382812 118.59375 44.605469 C 118.816406 44.828125 119.015625 45.070312 119.191406 45.332031 C 119.367188 45.59375 119.515625 45.871094 119.632812 46.164062 C 119.753906 46.453125 119.847656 46.753906 119.90625 47.0625 C 119.96875 47.371094 120 47.683594 120 48 L 120 57.601562 C 120 57.914062 119.96875 58.226562 119.90625 58.535156 C 119.847656 58.84375 119.753906 59.144531 119.632812 59.4375 C 119.515625 59.726562 119.367188 60.003906 119.191406 60.265625 C 119.015625 60.527344 118.816406 60.769531 118.59375 60.992188 C 118.371094 61.21875 118.128906 61.414062 117.867188 61.589844 C 117.605469 61.765625 117.328125 61.914062 117.035156 62.035156 C 116.746094 62.15625 116.445312 62.246094 116.136719 62.308594 C 115.828125 62.371094 115.515625 62.398438 115.199219 62.398438 C 114.886719 62.398438 114.574219 62.371094 114.261719 62.308594 C 113.953125 62.246094 113.652344 62.15625 113.363281 62.035156 C 113.070312 61.914062 112.796875 61.765625 112.535156 61.589844 C 112.269531 61.414062 112.027344 61.21875 111.804688 60.992188 C 111.582031 60.769531 111.382812 60.527344 111.207031 60.265625 C 111.035156 60.003906 110.886719 59.726562 110.765625 59.4375 C 110.644531 59.144531 110.554688 58.84375 110.492188 58.535156 C 110.429688 58.226562 110.398438 57.914062 110.398438 57.601562 Z M 110.398438 48 " fill-opacity="1" fill-rule="nonzero"/><path fill="#00ff41" d="M 9.601562 144 C 10.230469 144 10.855469 143.9375 11.472656 143.816406 C 12.089844 143.691406 12.691406 143.511719 13.273438 143.269531 C 13.855469 143.027344 14.410156 142.730469 14.933594 142.382812 C 15.457031 142.03125 15.941406 141.632812 16.386719 141.1875 C 16.832031 140.742188 17.230469 140.257812 17.582031 139.734375 C 17.933594 139.210938 18.226562 138.65625 18.46875 138.074219 C 18.710938 137.492188 18.890625 136.890625 19.015625 136.273438 C 19.136719 135.65625 19.199219 135.03125 19.199219 134.398438 L 19.199219 124.800781 C 19.199219 124.167969 19.136719 123.546875 19.015625 122.925781 C 18.890625 122.308594 18.710938 121.707031 18.46875 121.125 C 18.226562 120.542969 17.933594 119.992188 17.582031 119.464844 C 17.230469 118.941406 16.832031 118.457031 16.386719 118.011719 C 15.941406 117.566406 15.457031 117.167969 14.933594 116.816406 C 14.410156 116.46875 13.855469 116.171875 13.273438 115.929688 C 12.691406 115.691406 12.089844 115.507812 11.472656 115.382812 C 10.855469 115.261719 10.230469 115.199219 9.601562 115.199219 C 8.96875 115.199219 8.34375 115.261719 7.726562 115.382812 C 7.109375 115.507812 6.507812 115.691406 5.925781 115.929688 C 5.34375 116.171875 4.789062 116.46875 4.265625 116.816406 C 3.742188 117.167969 3.257812 117.566406 2.8125 118.011719 C 2.367188 118.457031 1.96875 118.941406 1.617188 119.464844 C 1.269531 119.992188 0.972656 120.542969 0.730469 121.125 C 0.488281 121.707031 0.308594 122.308594 0.183594 122.925781 C 0.0625 123.546875 0 124.167969 0 124.800781 L 0 134.398438 C 0 135.03125 0.0625 135.65625 0.183594 136.273438 C 0.308594 136.890625 0.488281 137.492188 0.730469 138.074219 C 0.972656 138.65625 1.269531 139.210938 1.617188 139.734375 C 1.96875 140.257812 2.367188 140.742188 2.8125 141.1875 C 3.257812 141.632812 3.742188 142.03125 4.265625 142.382812 C 4.789062 142.730469 5.34375 143.027344 5.925781 143.269531 C 6.507812 143.511719 7.109375 143.691406 7.726562 143.816406 C 8.34375 143.9375 8.96875 144 9.601562 144 Z M 4.800781 124.800781 C 4.800781 124.484375 4.832031 124.171875 4.890625 123.863281 C 4.953125 123.554688 5.042969 123.253906 5.164062 122.964844 C 5.285156 122.671875 5.433594 122.394531 5.609375 122.132812 C 5.785156 121.871094 5.984375 121.628906 6.207031 121.40625 C 6.429688 121.183594 6.671875 120.984375 6.933594 120.808594 C 7.195312 120.632812 7.472656 120.484375 7.761719 120.367188 C 8.054688 120.246094 8.355469 120.152344 8.664062 120.09375 C 8.972656 120.03125 9.285156 120 9.601562 120 C 9.914062 120 10.226562 120.03125 10.535156 120.09375 C 10.84375 120.152344 11.144531 120.246094 11.4375 120.367188 C 11.726562 120.484375 12.003906 120.632812 12.265625 120.808594 C 12.527344 120.984375 12.769531 121.183594 12.992188 121.40625 C 13.21875 121.628906 13.414062 121.871094 13.589844 122.132812 C 13.765625 122.394531 13.914062 122.671875 14.035156 122.964844 C 14.15625 123.253906 14.246094 123.554688 14.308594 123.863281 C 14.371094 124.171875 14.398438 124.484375 14.398438 124.800781 L 14.398438 134.398438 C 14.398438 134.714844 14.371094 135.027344 14.308594 135.335938 C 14.246094 135.644531 14.15625 135.945312 14.035156 136.238281 C 13.914062 136.527344 13.765625 136.804688 13.589844 137.066406 C 13.414062 137.328125 13.21875 137.570312 12.992188 137.792969 C 12.769531 138.015625 12.527344 138.214844 12.265625 138.390625 C 12.003906 138.566406 11.726562 138.714844 11.4375 138.835938 C 11.144531 138.957031 10.84375 139.046875 10.535156 139.109375 C 10.226562 139.167969 9.914062 139.199219 9.601562 139.199219 C 9.285156 139.199219 8.972656 139.167969 8.664062 139.109375 C 8.355469 139.046875 8.054688 138.957031 7.761719 138.835938 C 7.472656 138.714844 7.195312 138.566406 6.933594 138.390625 C 6.671875 138.214844 6.429688 138.015625 6.207031 137.792969 C 5.984375 137.570312 5.785156 137.328125 5.609375 137.066406 C 5.433594 136.804688 5.285156 136.527344 5.164062 136.238281 C 5.042969 135.945312 4.953125 135.644531 4.890625 135.335938 C 4.832031 135.027344 4.800781 134.714844 4.800781 134.398438 Z M 4.800781 124.800781 " fill-opacity="1" fill-rule="nonzero"/><path fill="#00ff41" d="M 33.601562 115.199219 L 38.398438 115.199219 L 38.398438 144 L 33.601562 144 Z M 33.601562 115.199219 " fill-opacity="1" fill-rule="nonzero"/><path fill="#00ff41" d="M 62.398438 144 C 63.03125 144 63.65625 143.9375 64.273438 143.816406 C 64.890625 143.691406 65.492188 143.511719 66.074219 143.269531 C 66.65625 143.027344 67.210938 142.730469 67.734375 142.382812 C 68.257812 142.03125 68.742188 141.632812 69.1875 141.1875 C 69.632812 140.742188 70.03125 140.257812 70.382812 139.734375 C 70.730469 139.210938 71.027344 138.65625 71.269531 138.074219 C 71.511719 137.492188 71.691406 136.890625 71.816406 136.273438 C 71.9375 135.65625 72 135.03125 72 134.398438 L 72 124.800781 C 72 124.167969 71.9375 123.546875 71.816406 122.925781 C 71.691406 122.308594 71.511719 121.707031 71.269531 121.125 C 71.027344 120.542969 70.730469 119.992188 70.382812 119.464844 C 70.03125 118.941406 69.632812 118.457031 69.1875 118.011719 C 68.742188 117.566406 68.257812 117.167969 67.734375 116.816406 C 67.210938 116.46875 66.65625 116.171875 66.074219 115.929688 C 65.492188 115.691406 64.890625 115.507812 64.273438 115.382812 C 63.65625 115.261719 63.03125 115.199219 62.398438 115.199219 C 61.769531 115.199219 61.144531 115.261719 60.527344 115.382812 C 59.910156 115.507812 59.308594 115.691406 58.726562 115.929688 C 58.144531 116.171875 57.589844 116.46875 57.066406 116.816406 C 56.542969 117.167969 56.058594 117.566406 55.613281 118.011719 C 55.167969 118.457031 54.769531 118.941406 54.417969 119.464844 C 54.066406 119.992188 53.773438 120.542969 53.53125 121.125 C 53.289062 121.707031 53.109375 122.308594 52.984375 122.925781 C 52.863281 123.546875 52.800781 124.167969 52.800781 124.800781 L 52.800781 134.398438 C 52.800781 135.03125 52.863281 135.65625 52.984375 136.273438 C 53.109375 136.890625 53.289062 137.492188 53.53125 138.074219 C 53.773438 138.65625 54.066406 139.210938 54.417969 139.734375 C 54.769531 140.257812 55.167969 140.742188 55.613281 141.1875 C 56.058594 141.632812 56.542969 142.03125 57.066406 142.382812 C 57.589844 142.730469 58.144531 143.027344 58.726562 143.269531 C 59.308594 143.511719 59.910156 143.691406 60.527344 143.816406 C 61.144531 143.9375 61.769531 144 62.398438 144 Z M 57.601562 124.800781 C 57.601562 124.484375 57.628906 124.171875 57.691406 123.863281 C 57.753906 123.554688 57.84375 123.253906 57.964844 122.964844 C 58.085938 122.671875 58.234375 122.394531 58.410156 122.132812 C 58.585938 121.871094 58.78125 121.628906 59.007812 121.40625 C 59.230469 121.183594 59.472656 120.984375 59.734375 120.808594 C 59.996094 120.632812 60.273438 120.484375 60.5625 120.367188 C 60.855469 120.246094 61.15625 120.152344 61.464844 120.09375 C 61.773438 120.03125 62.085938 120 62.398438 120 C 62.714844 120 63.027344 120.03125 63.335938 120.09375 C 63.644531 120.152344 63.945312 120.246094 64.238281 120.367188 C 64.527344 120.484375 64.804688 120.632812 65.066406 120.808594 C 65.328125 120.984375 65.570312 121.183594 65.792969 121.40625 C 66.015625 121.628906 66.214844 121.871094 66.390625 122.132812 C 66.566406 122.394531 66.714844 122.671875 66.835938 122.964844 C 66.957031 123.253906 67.046875 123.554688 67.109375 123.863281 C 67.167969 124.171875 67.199219 124.484375 67.199219 124.800781 L 67.199219 134.398438 C 67.199219 134.714844 67.167969 135.027344 67.109375 135.335938 C 67.046875 135.644531 66.957031 135.945312 66.835938 136.238281 C 66.714844 136.527344 66.566406 136.804688 66.390625 137.066406 C 66.214844 137.328125 66.015625 137.570312 65.792969 137.792969 C 65.570312 138.015625 65.328125 138.214844 65.066406 138.390625 C 64.804688 138.566406 64.527344 138.714844 64.238281 138.835938 C 63.945312 138.957031 63.644531 139.046875 63.335938 139.109375 C 63.027344 139.167969 62.714844 139.199219 62.398438 139.199219 C 62.085938 139.199219 61.773438 139.167969 61.464844 139.109375 C 61.15625 139.046875 60.855469 138.957031 60.5625 138.835938 C 60.273438 138.714844 59.996094 138.566406 59.734375 138.390625 C 59.472656 138.214844 59.230469 138.015625 59.007812 137.792969 C 58.78125 137.570312 58.585938 137.328125 58.410156 137.066406 C 58.234375 136.804688 58.085938 136.527344 57.964844 136.238281 C 57.84375 135.945312 57.753906 135.644531 57.691406 135.335938 C 57.628906 135.027344 57.601562 134.714844 57.601562 134.398438 Z M 57.601562 124.800781 " fill-opacity="1" fill-rule="nonzero"/><path fill="#00ff41" d="M 86.398438 115.199219 L 91.199219 115.199219 L 91.199219 144 L 86.398438 144 Z M 86.398438 115.199219 " fill-opacity="1" fill-rule="nonzero"/><path fill="#00ff41" d="M 139.199219 115.199219 L 144 115.199219 L 144 144 L 139.199219 144 Z M 139.199219 115.199219 " fill-opacity="1" fill-rule="nonzero"/><path fill="#00ff41" d="M 115.199219 144 C 115.832031 144 116.453125 143.9375 117.074219 143.816406 C 117.691406 143.691406 118.292969 143.511719 118.875 143.269531 C 119.457031 143.027344 120.007812 142.730469 120.535156 142.382812 C 121.058594 142.03125 121.542969 141.632812 121.988281 141.1875 C 122.433594 140.742188 122.832031 140.257812 123.183594 139.734375 C 123.53125 139.210938 123.828125 138.65625 124.070312 138.074219 C 124.308594 137.492188 124.492188 136.890625 124.617188 136.273438 C 124.738281 135.65625 124.800781 135.03125 124.800781 134.398438 L 124.800781 124.800781 C 124.800781 124.167969 124.738281 123.546875 124.617188 122.925781 C 124.492188 122.308594 124.308594 121.707031 124.070312 121.125 C 123.828125 120.542969 123.53125 119.992188 123.183594 119.464844 C 122.832031 118.941406 122.433594 118.457031 121.988281 118.011719 C 121.542969 117.566406 121.058594 117.167969 120.535156 116.816406 C 120.007812 116.46875 119.457031 116.171875 118.875 115.929688 C 118.292969 115.691406 117.691406 115.507812 117.074219 115.382812 C 116.453125 115.261719 115.832031 115.199219 115.199219 115.199219 C 114.570312 115.199219 113.945312 115.261719 113.328125 115.382812 C 112.707031 115.507812 112.109375 115.691406 111.527344 115.929688 C 110.945312 116.171875 110.390625 116.46875 109.867188 116.816406 C 109.34375 117.167969 108.859375 117.566406 108.410156 118.011719 C 107.964844 118.457031 107.566406 118.941406 107.21875 119.464844 C 106.867188 119.992188 106.570312 120.542969 106.332031 121.125 C 106.089844 121.707031 105.90625 122.308594 105.785156 122.925781 C 105.660156 123.546875 105.601562 124.167969 105.601562 124.800781 L 105.601562 134.398438 C 105.601562 135.03125 105.660156 135.65625 105.785156 136.273438 C 105.90625 136.890625 106.089844 137.492188 106.332031 138.074219 C 106.570312 138.65625 106.867188 139.210938 107.21875 139.734375 C 107.566406 140.257812 107.964844 140.742188 108.410156 141.1875 C 108.859375 141.632812 109.34375 142.03125 109.867188 142.382812 C 110.390625 142.730469 110.945312 143.027344 111.527344 143.269531 C 112.109375 143.511719 112.707031 143.691406 113.328125 143.816406 C 113.945312 143.9375 114.570312 144 115.199219 144 Z M 110.398438 124.800781 C 110.398438 124.484375 110.429688 124.171875 110.492188 123.863281 C 110.554688 123.554688 110.644531 123.253906 110.765625 122.964844 C 110.886719 122.671875 111.035156 122.394531 111.207031 122.132812 C 111.382812 121.871094 111.582031 121.628906 111.804688 121.40625 C 112.027344 121.183594 112.269531 120.984375 112.535156 120.808594 C 112.796875 120.632812 113.070312 120.484375 113.363281 120.367188 C 113.652344 120.246094 113.953125 120.152344 114.261719 120.09375 C 114.574219 120.03125 114.886719 120 115.199219 120 C 115.515625 120 115.828125 120.03125 116.136719 120.09375 C 116.445312 120.152344 116.746094 120.246094 117.035156 120.367188 C 117.328125 120.484375 117.605469 120.632812 117.867188 120.808594 C 118.128906 120.984375 118.371094 121.183594 118.59375 121.40625 C 118.816406 121.628906 119.015625 121.871094 119.191406 122.132812 C 119.367188 122.394531 119.515625 122.671875 119.632812 122.964844 C 119.753906 123.253906 119.847656 123.554688 119.90625 123.863281 C 119.96875 124.171875 120 124.484375 120 124.800781 L 120 134.398438 C 120 134.714844 119.96875 135.027344 119.90625 135.335938 C 119.847656 135.644531 119.753906 135.945312 119.632812 136.238281 C 119.515625 136.527344 119.367188 136.804688 119.191406 137.066406 C 119.015625 137.328125 118.816406 137.570312 118.59375 137.792969 C 118.371094 138.015625 118.128906 138.214844 117.867188 138.390625 C 117.605469 138.566406 117.328125 138.714844 117.035156 138.835938 C 116.746094 138.957031 116.445312 139.046875 116.136719 139.109375 C 115.828125 139.167969 115.515625 139.199219 115.199219 139.199219 C 114.886719 139.199219 114.574219 139.167969 114.261719 139.109375 C 113.953125 139.046875 113.652344 138.957031 113.363281 138.835938 C 113.070312 138.714844 112.796875 138.566406 112.535156 138.390625 C 112.269531 138.214844 112.027344 138.015625 111.804688 137.792969 C 111.582031 137.570312 111.382812 137.328125 111.207031 137.066406 C 111.035156 136.804688 110.886719 136.527344 110.765625 136.238281 C 110.644531 135.945312 110.554688 135.644531 110.492188 135.335938 C 110.429688 135.027344 110.398438 134.714844 110.398438 134.398438 Z M 110.398438 124.800781 " fill-opacity="1" fill-rule="nonzero"/></svg>