<svg xmlns="http://www.w3.org/2000/svg" xmlns:xlink="http://www.w3.org/1999/xlink" width="40" zoomAndPan="magnify" viewBox="0 0 30 30.000001" height="40" preserveAspectRatio="xMidYMid meet" version="1.0"><defs><clipPath id="e893ec9e45"><path d="M 0.484375 0 L 2 0 L 2 6 L 0.484375 6 Z M 0.484375 0 " clip-rule="nonzero"/></clipPath><clipPath id="ea02ec007f"><path d="M 25 0 L 29.515625 0 L 29.515625 6 L 25 6 Z M 25 0 " clip-rule="nonzero"/></clipPath><clipPath id="53ff66d61e"><path d="M 0.484375 15 L 2 15 L 2 22 L 0.484375 22 Z M 0.484375 15 " clip-rule="nonzero"/></clipPath><clipPath id="53a8e5fd2a"><path d="M 25 15 L 29.515625 15 L 29.515625 22 L 25 22 Z M 25 15 " clip-rule="nonzero"/></clipPath><clipPath id="4cbff98d51"><path d="M 0.484375 7 L 5 7 L 5 14 L 0.484375 14 Z M 0.484375 7 " clip-rule="nonzero"/></clipPath><clipPath id="a689061b5e"><path d="M 28 7 L 29.515625 7 L 29.515625 14 L 28 14 Z M 28 7 " clip-rule="nonzero"/></clipPath><clipPath id="e7a4d71b94"><path d="M 0.484375 23 L 5 23 L 5 29.03125 L 0.484375 29.03125 Z M 0.484375 23 " clip-rule="nonzero"/></clipPath><clipPath id="26ff8c5234"><path d="M 7 23 L 9 23 L 9 29.03125 L 7 29.03125 Z M 7 23 " clip-rule="nonzero"/></clipPath><clipPath id="32f8d81c57"><path d="M 11 23 L 15 23 L 15 29.03125 L 11 29.03125 Z M 11 23 " clip-rule="nonzero"/></clipPath><clipPath id="118dfc771e"><path d="M 17 23 L 19 23 L 19 29.03125 L 17 29.03125 Z M 17 23 " clip-rule="nonzero"/></clipPath><clipPath id="d8c6baf4fd"><path d="M 28 23 L 29.515625 23 L 29.515625 29.03125 L 28 29.03125 Z M 28 23 " clip-rule="nonzero"/></clipPath><clipPath id="2eebf97ef6"><path d="M 21 23 L 26 23 L 26 29.03125 L 21 29.03125 Z M 21 23 " clip-rule="nonzero"/></clipPath></defs><g clip-path="url(#e893ec9e45)"><path fill="#00ff41" d="M 0.484375 0 L 1.453125 0 L 1.453125 5.804688 L 0.484375 5.804688 Z M 0.484375 0 " fill-opacity="1" fill-rule="nonzero"/></g><path fill="#00ff41" d="M 6.289062 5.804688 C 6.546875 5.804688 6.792969 5.757812 7.03125 5.660156 C 7.269531 5.5625 7.476562 5.421875 7.660156 5.238281 C 7.839844 5.058594 7.980469 4.847656 8.078125 4.613281 C 8.175781 4.375 8.226562 4.128906 8.226562 3.871094 L 8.226562 1.933594 C 8.226562 1.679688 8.175781 1.433594 8.078125 1.195312 C 7.980469 0.957031 7.839844 0.75 7.660156 0.566406 C 7.476562 0.386719 7.269531 0.246094 7.03125 0.148438 C 6.792969 0.0507812 6.546875 0 6.289062 0 C 6.035156 0 5.785156 0.0507812 5.550781 0.148438 C 5.3125 0.246094 5.101562 0.386719 4.921875 0.566406 C 4.742188 0.75 4.601562 0.957031 4.503906 1.195312 C 4.402344 1.433594 4.355469 1.679688 4.355469 1.933594 L 4.355469 3.871094 C 4.355469 4.128906 4.402344 4.375 4.503906 4.613281 C 4.601562 4.847656 4.742188 5.058594 4.921875 5.238281 C 5.101562 5.421875 5.3125 5.5625 5.550781 5.660156 C 5.785156 5.757812 6.035156 5.804688 6.289062 5.804688 Z M 5.324219 1.933594 C 5.324219 1.808594 5.347656 1.683594 5.394531 1.566406 C 5.445312 1.445312 5.515625 1.34375 5.605469 1.25 C 5.695312 1.160156 5.800781 1.089844 5.921875 1.042969 C 6.039062 0.992188 6.160156 0.96875 6.289062 0.96875 C 6.417969 0.96875 6.542969 0.992188 6.660156 1.042969 C 6.777344 1.089844 6.882812 1.160156 6.976562 1.25 C 7.066406 1.34375 7.136719 1.445312 7.183594 1.566406 C 7.234375 1.683594 7.257812 1.808594 7.257812 1.933594 L 7.257812 3.871094 C 7.257812 4 7.234375 4.121094 7.183594 4.242188 C 7.136719 4.359375 7.066406 4.464844 6.976562 4.554688 C 6.882812 4.644531 6.777344 4.714844 6.660156 4.765625 C 6.542969 4.8125 6.417969 4.839844 6.289062 4.839844 C 6.160156 4.839844 6.039062 4.8125 5.921875 4.765625 C 5.800781 4.714844 5.695312 4.644531 5.605469 4.554688 C 5.515625 4.464844 5.445312 4.359375 5.394531 4.242188 C 5.347656 4.121094 5.324219 4 5.324219 3.871094 Z M 5.324219 1.933594 " fill-opacity="1" fill-rule="nonzero"/><path fill="#00ff41" d="M 11.128906 0 L 12.097656 0 L 12.097656 5.804688 L 11.128906 5.804688 Z M 11.128906 0 " fill-opacity="1" fill-rule="nonzero"/><path fill="#00ff41" d="M 16.933594 5.804688 C 17.191406 5.804688 17.4375 5.757812 17.675781 5.660156 C 17.914062 5.5625 18.121094 5.421875 18.304688 5.238281 C 18.484375 5.058594 18.625 4.847656 18.722656 4.613281 C 18.820312 4.375 18.871094 4.128906 18.871094 3.871094 L 18.871094 1.933594 C 18.871094 1.679688 18.820312 1.433594 18.722656 1.195312 C 18.625 0.957031 18.484375 0.75 18.304688 0.566406 C 18.121094 0.386719 17.914062 0.246094 17.675781 0.148438 C 17.4375 0.0507812 17.191406 0 16.933594 0 C 16.679688 0 16.433594 0.0507812 16.195312 0.148438 C 15.957031 0.246094 15.75 0.386719 15.566406 0.566406 C 15.386719 0.75 15.246094 0.957031 15.148438 1.195312 C 15.050781 1.433594 15 1.679688 15 1.933594 L 15 3.871094 C 15 4.128906 15.050781 4.375 15.148438 4.613281 C 15.246094 4.847656 15.386719 5.058594 15.566406 5.238281 C 15.75 5.421875 15.957031 5.5625 16.195312 5.660156 C 16.433594 5.757812 16.679688 5.804688 16.933594 5.804688 Z M 15.96875 1.933594 C 15.96875 1.808594 15.992188 1.683594 16.042969 1.566406 C 16.089844 1.445312 16.160156 1.34375 16.25 1.25 C 16.34375 1.160156 16.445312 1.089844 16.566406 1.042969 C 16.683594 0.992188 16.808594 0.96875 16.933594 0.96875 C 17.0625 0.96875 17.1875 0.992188 17.304688 1.042969 C 17.425781 1.089844 17.527344 1.160156 17.621094 1.25 C 17.710938 1.34375 17.78125 1.445312 17.828125 1.566406 C 17.878906 1.683594 17.902344 1.808594 17.902344 1.933594 L 17.902344 3.871094 C 17.902344 4 17.878906 4.121094 17.828125 4.242188 C 17.78125 4.359375 17.710938 4.464844 17.621094 4.554688 C 17.527344 4.644531 17.425781 4.714844 17.304688 4.765625 C 17.1875 4.8125 17.0625 4.839844 16.933594 4.839844 C 16.808594 4.839844 16.683594 4.8125 16.566406 4.765625 C 16.445312 4.714844 16.34375 4.644531 16.25 4.554688 C 16.160156 4.464844 16.089844 4.359375 16.042969 4.242188 C 15.992188 4.121094 15.96875 4 15.96875 3.871094 Z M 15.96875 1.933594 " fill-opacity="1" fill-rule="nonzero"/><path fill="#00ff41" d="M 21.773438 0 L 22.742188 0 L 22.742188 5.804688 L 21.773438 5.804688 Z M 21.773438 0 " fill-opacity="1" fill-rule="nonzero"/><g clip-path="url(#ea02ec007f)"><path fill="#00ff41" d="M 27.582031 0 C 27.324219 0 27.078125 0.0507812 26.839844 0.148438 C 26.601562 0.246094 26.394531 0.386719 26.210938 0.566406 C 26.03125 0.75 25.890625 0.957031 25.792969 1.195312 C 25.695312 1.433594 25.644531 1.679688 25.644531 1.933594 L 25.644531 3.871094 C 25.644531 4.128906 25.695312 4.375 25.792969 4.613281 C 25.890625 4.847656 26.03125 5.058594 26.210938 5.238281 C 26.394531 5.421875 26.601562 5.5625 26.839844 5.660156 C 27.078125 5.757812 27.324219 5.804688 27.582031 5.804688 C 27.835938 5.804688 28.085938 5.757812 28.320312 5.660156 C 28.558594 5.5625 28.769531 5.421875 28.949219 5.238281 C 29.128906 5.058594 29.269531 4.847656 29.367188 4.613281 C 29.46875 4.375 29.515625 4.128906 29.515625 3.871094 L 29.515625 1.933594 C 29.515625 1.679688 29.46875 1.433594 29.367188 1.195312 C 29.269531 0.957031 29.128906 0.75 28.949219 0.566406 C 28.769531 0.386719 28.558594 0.246094 28.320312 0.148438 C 28.085938 0.0507812 27.835938 0 27.582031 0 Z M 28.546875 3.871094 C 28.546875 4 28.523438 4.121094 28.476562 4.242188 C 28.425781 4.359375 28.355469 4.464844 28.265625 4.554688 C 28.175781 4.644531 28.070312 4.714844 27.949219 4.765625 C 27.832031 4.8125 27.707031 4.839844 27.582031 4.839844 C 27.453125 4.839844 27.328125 4.8125 27.210938 4.765625 C 27.089844 4.714844 26.988281 4.644531 26.894531 4.554688 C 26.804688 4.464844 26.734375 4.359375 26.6875 4.242188 C 26.636719 4.121094 26.613281 4 26.613281 3.871094 L 26.613281 1.933594 C 26.613281 1.808594 26.636719 1.683594 26.6875 1.566406 C 26.734375 1.445312 26.804688 1.34375 26.894531 1.25 C 26.988281 1.160156 27.089844 1.089844 27.210938 1.042969 C 27.328125 0.992188 27.453125 0.96875 27.582031 0.96875 C 27.707031 0.96875 27.832031 0.992188 27.949219 1.042969 C 28.070312 1.089844 28.175781 1.160156 28.265625 1.25 C 28.355469 1.34375 28.425781 1.445312 28.476562 1.566406 C 28.523438 1.683594 28.546875 1.808594 28.546875 1.933594 Z M 28.546875 3.871094 " fill-opacity="1" fill-rule="nonzero"/></g><g clip-path="url(#53ff66d61e)"><path fill="#00ff41" d="M 0.484375 15.484375 L 1.453125 15.484375 L 1.453125 21.289062 L 0.484375 21.289062 Z M 0.484375 15.484375 " fill-opacity="1" fill-rule="nonzero"/></g><path fill="#00ff41" d="M 4.355469 17.417969 L 4.355469 19.355469 C 4.355469 19.613281 4.402344 19.859375 4.503906 20.09375 C 4.601562 20.332031 4.742188 20.542969 4.921875 20.722656 C 5.101562 20.90625 5.3125 21.042969 5.550781 21.144531 C 5.785156 21.242188 6.035156 21.289062 6.289062 21.289062 C 6.546875 21.289062 6.792969 21.242188 7.03125 21.144531 C 7.269531 21.042969 7.476562 20.90625 7.660156 20.722656 C 7.839844 20.542969 7.980469 20.332031 8.078125 20.09375 C 8.175781 19.859375 8.226562 19.613281 8.226562 19.355469 L 8.226562 17.417969 C 8.226562 17.164062 8.175781 16.914062 8.078125 16.679688 C 7.980469 16.441406 7.839844 16.230469 7.660156 16.050781 C 7.476562 15.871094 7.269531 15.730469 7.03125 15.632812 C 6.792969 15.53125 6.546875 15.484375 6.289062 15.484375 C 6.035156 15.484375 5.785156 15.53125 5.550781 15.632812 C 5.3125 15.730469 5.101562 15.871094 4.921875 16.050781 C 4.742188 16.230469 4.601562 16.441406 4.503906 16.679688 C 4.402344 16.914062 4.355469 17.164062 4.355469 17.417969 Z M 7.257812 17.417969 L 7.257812 19.355469 C 7.257812 19.484375 7.234375 19.605469 7.183594 19.726562 C 7.136719 19.84375 7.066406 19.949219 6.976562 20.039062 C 6.882812 20.128906 6.777344 20.199219 6.660156 20.25 C 6.542969 20.296875 6.417969 20.324219 6.289062 20.324219 C 6.160156 20.324219 6.039062 20.296875 5.921875 20.25 C 5.800781 20.199219 5.695312 20.128906 5.605469 20.039062 C 5.515625 19.949219 5.445312 19.84375 5.394531 19.726562 C 5.347656 19.605469 5.324219 19.484375 5.324219 19.355469 L 5.324219 17.417969 C 5.324219 17.292969 5.347656 17.167969 5.394531 17.050781 C 5.445312 16.929688 5.515625 16.824219 5.605469 16.734375 C 5.695312 16.644531 5.800781 16.574219 5.921875 16.523438 C 6.039062 16.476562 6.160156 16.453125 6.289062 16.453125 C 6.417969 16.453125 6.542969 16.476562 6.660156 16.523438 C 6.777344 16.574219 6.882812 16.644531 6.976562 16.734375 C 7.066406 16.824219 7.136719 16.929688 7.183594 17.050781 C 7.234375 17.167969 7.257812 17.292969 7.257812 17.417969 Z M 7.257812 17.417969 " fill-opacity="1" fill-rule="nonzero"/><path fill="#00ff41" d="M 11.128906 15.484375 L 12.097656 15.484375 L 12.097656 21.289062 L 11.128906 21.289062 Z M 11.128906 15.484375 " fill-opacity="1" fill-rule="nonzero"/><path fill="#00ff41" d="M 15 17.417969 L 15 19.355469 C 15 19.613281 15.050781 19.859375 15.148438 20.09375 C 15.246094 20.332031 15.386719 20.542969 15.566406 20.722656 C 15.75 20.90625 15.957031 21.042969 16.195312 21.144531 C 16.433594 21.242188 16.679688 21.289062 16.933594 21.289062 C 17.191406 21.289062 17.4375 21.242188 17.675781 21.144531 C 17.914062 21.042969 18.121094 20.90625 18.304688 20.722656 C 18.484375 20.542969 18.625 20.332031 18.722656 20.09375 C 18.820312 19.859375 18.871094 19.613281 18.871094 19.355469 L 18.871094 17.417969 C 18.871094 17.164062 18.820312 16.914062 18.722656 16.679688 C 18.625 16.441406 18.484375 16.230469 18.304688 16.050781 C 18.121094 15.871094 17.914062 15.730469 17.675781 15.632812 C 17.4375 15.53125 17.191406 15.484375 16.933594 15.484375 C 16.679688 15.484375 16.433594 15.53125 16.195312 15.632812 C 15.957031 15.730469 15.75 15.871094 15.566406 16.050781 C 15.386719 16.230469 15.246094 16.441406 15.148438 16.679688 C 15.050781 16.914062 15 17.164062 15 17.417969 Z M 17.902344 17.417969 L 17.902344 19.355469 C 17.902344 19.484375 17.878906 19.605469 17.828125 19.726562 C 17.78125 19.84375 17.710938 19.949219 17.621094 20.039062 C 17.527344 20.128906 17.425781 20.199219 17.304688 20.25 C 17.1875 20.296875 17.0625 20.324219 16.933594 20.324219 C 16.808594 20.324219 16.683594 20.296875 16.566406 20.25 C 16.445312 20.199219 16.34375 20.128906 16.25 20.039062 C 16.160156 19.949219 16.089844 19.84375 16.042969 19.726562 C 15.992188 19.605469 15.96875 19.484375 15.96875 19.355469 L 15.96875 17.417969 C 15.96875 17.292969 15.992188 17.167969 16.042969 17.050781 C 16.089844 16.929688 16.160156 16.824219 16.25 16.734375 C 16.34375 16.644531 16.445312 16.574219 16.566406 16.523438 C 16.683594 16.476562 16.808594 16.453125 16.933594 16.453125 C 17.0625 16.453125 17.1875 16.476562 17.304688 16.523438 C 17.425781 16.574219 17.527344 16.644531 17.621094 16.734375 C 17.710938 16.824219 17.78125 16.929688 17.828125 17.050781 C 17.878906 17.167969 17.902344 17.292969 17.902344 17.417969 Z M 17.902344 17.417969 " fill-opacity="1" fill-rule="nonzero"/><path fill="#00ff41" d="M 21.773438 15.484375 L 22.742188 15.484375 L 22.742188 21.289062 L 21.773438 21.289062 Z M 21.773438 15.484375 " fill-opacity="1" fill-rule="nonzero"/><g clip-path="url(#53a8e5fd2a)"><path fill="#00ff41" d="M 27.582031 15.484375 C 27.324219 15.484375 27.078125 15.53125 26.839844 15.632812 C 26.601562 15.730469 26.394531 15.871094 26.210938 16.050781 C 26.03125 16.230469 25.890625 16.441406 25.792969 16.679688 C 25.695312 16.914062 25.644531 17.164062 25.644531 17.417969 L 25.644531 19.355469 C 25.644531 19.613281 25.695312 19.859375 25.792969 20.09375 C 25.890625 20.332031 26.03125 20.542969 26.210938 20.722656 C 26.394531 20.90625 26.601562 21.042969 26.839844 21.144531 C 27.078125 21.242188 27.324219 21.289062 27.582031 21.289062 C 27.835938 21.289062 28.085938 21.242188 28.320312 21.144531 C 28.558594 21.042969 28.769531 20.90625 28.949219 20.722656 C 29.128906 20.542969 29.269531 20.332031 29.367188 20.09375 C 29.46875 19.859375 29.515625 19.613281 29.515625 19.355469 L 29.515625 17.417969 C 29.515625 17.164062 29.46875 16.914062 29.367188 16.679688 C 29.269531 16.441406 29.128906 16.230469 28.949219 16.050781 C 28.769531 15.871094 28.558594 15.730469 28.320312 15.632812 C 28.085938 15.53125 27.835938 15.484375 27.582031 15.484375 Z M 28.546875 19.355469 C 28.546875 19.484375 28.523438 19.605469 28.476562 19.726562 C 28.425781 19.84375 28.355469 19.949219 28.265625 20.039062 C 28.175781 20.128906 28.070312 20.199219 27.949219 20.25 C 27.832031 20.296875 27.707031 20.324219 27.582031 20.324219 C 27.453125 20.324219 27.328125 20.296875 27.210938 20.25 C 27.089844 20.199219 26.988281 20.128906 26.894531 20.039062 C 26.804688 19.949219 26.734375 19.84375 26.6875 19.726562 C 26.636719 19.605469 26.613281 19.484375 26.613281 19.355469 L 26.613281 17.417969 C 26.613281 17.292969 26.636719 17.167969 26.6875 17.050781 C 26.734375 16.929688 26.804688 16.824219 26.894531 16.734375 C 26.988281 16.644531 27.089844 16.574219 27.210938 16.523438 C 27.328125 16.476562 27.453125 16.453125 27.582031 16.453125 C 27.707031 16.453125 27.832031 16.476562 27.949219 16.523438 C 28.070312 16.574219 28.175781 16.644531 28.265625 16.734375 C 28.355469 16.824219 28.425781 16.929688 28.476562 17.050781 C 28.523438 17.167969 28.546875 17.292969 28.546875 17.417969 Z M 28.546875 19.355469 " fill-opacity="1" fill-rule="nonzero"/></g><g clip-path="url(#4cbff98d51)"><path fill="#00ff41" d="M 2.417969 13.546875 C 2.675781 13.546875 2.921875 13.5 3.160156 13.402344 C 3.398438 13.304688 3.605469 13.164062 3.789062 12.980469 C 3.96875 12.800781 4.109375 12.589844 4.207031 12.355469 C 4.304688 12.117188 4.355469 11.871094 4.355469 11.613281 L 4.355469 9.675781 C 4.355469 9.421875 4.304688 9.175781 4.207031 8.9375 C 4.109375 8.699219 3.96875 8.492188 3.789062 8.308594 C 3.605469 8.128906 3.398438 7.988281 3.160156 7.890625 C 2.921875 7.792969 2.675781 7.742188 2.417969 7.742188 C 2.164062 7.742188 1.914062 7.792969 1.679688 7.890625 C 1.441406 7.988281 1.230469 8.128906 1.050781 8.308594 C 0.871094 8.492188 0.730469 8.699219 0.632812 8.9375 C 0.53125 9.175781 0.484375 9.421875 0.484375 9.675781 L 0.484375 11.613281 C 0.484375 11.871094 0.53125 12.117188 0.632812 12.355469 C 0.730469 12.589844 0.871094 12.800781 1.050781 12.980469 C 1.230469 13.164062 1.441406 13.304688 1.679688 13.402344 C 1.914062 13.5 2.164062 13.546875 2.417969 13.546875 Z M 1.453125 9.675781 C 1.453125 9.550781 1.476562 9.425781 1.523438 9.308594 C 1.574219 9.1875 1.644531 9.082031 1.734375 8.992188 C 1.824219 8.902344 1.929688 8.832031 2.050781 8.785156 C 2.167969 8.734375 2.292969 8.710938 2.417969 8.710938 C 2.546875 8.710938 2.671875 8.734375 2.789062 8.785156 C 2.910156 8.832031 3.011719 8.902344 3.105469 8.992188 C 3.195312 9.082031 3.265625 9.1875 3.3125 9.308594 C 3.363281 9.425781 3.386719 9.550781 3.386719 9.675781 L 3.386719 11.613281 C 3.386719 11.742188 3.363281 11.863281 3.3125 11.984375 C 3.265625 12.101562 3.195312 12.207031 3.105469 12.296875 C 3.011719 12.386719 2.910156 12.457031 2.789062 12.507812 C 2.671875 12.554688 2.546875 12.582031 2.417969 12.582031 C 2.292969 12.582031 2.167969 12.554688 2.050781 12.507812 C 1.929688 12.457031 1.824219 12.386719 1.734375 12.296875 C 1.644531 12.207031 1.574219 12.101562 1.523438 11.984375 C 1.476562 11.863281 1.453125 11.742188 1.453125 11.613281 Z M 1.453125 9.675781 " fill-opacity="1" fill-rule="nonzero"/></g><path fill="#00ff41" d="M 7.257812 7.742188 L 8.226562 7.742188 L 8.226562 13.546875 L 7.257812 13.546875 Z M 7.257812 7.742188 " fill-opacity="1" fill-rule="nonzero"/><path fill="#00ff41" d="M 13.066406 13.546875 C 13.320312 13.546875 13.566406 13.5 13.804688 13.402344 C 14.042969 13.304688 14.25 13.164062 14.433594 12.980469 C 14.613281 12.800781 14.753906 12.589844 14.851562 12.355469 C 14.949219 12.117188 15 11.871094 15 11.613281 L 15 9.675781 C 15 9.421875 14.949219 9.175781 14.851562 8.9375 C 14.753906 8.699219 14.613281 8.492188 14.433594 8.308594 C 14.25 8.128906 14.042969 7.988281 13.804688 7.890625 C 13.566406 7.792969 13.320312 7.742188 13.066406 7.742188 C 12.808594 7.742188 12.5625 7.792969 12.324219 7.890625 C 12.085938 7.988281 11.878906 8.128906 11.695312 8.308594 C 11.515625 8.492188 11.375 8.699219 11.277344 8.9375 C 11.179688 9.175781 11.128906 9.421875 11.128906 9.675781 L 11.128906 11.613281 C 11.128906 11.871094 11.179688 12.117188 11.277344 12.355469 C 11.375 12.589844 11.515625 12.800781 11.695312 12.980469 C 11.878906 13.164062 12.085938 13.304688 12.324219 13.402344 C 12.5625 13.5 12.808594 13.546875 13.066406 13.546875 Z M 12.097656 9.675781 C 12.097656 9.550781 12.121094 9.425781 12.171875 9.308594 C 12.21875 9.1875 12.289062 9.082031 12.378906 8.992188 C 12.472656 8.902344 12.574219 8.832031 12.695312 8.785156 C 12.8125 8.734375 12.9375 8.710938 13.066406 8.710938 C 13.191406 8.710938 13.316406 8.734375 13.433594 8.785156 C 13.554688 8.832031 13.65625 8.902344 13.75 8.992188 C 13.839844 9.082031 13.910156 9.1875 13.957031 9.308594 C 14.007812 9.425781 14.03125 9.550781 14.03125 9.675781 L 14.03125 11.613281 C 14.03125 11.742188 14.007812 11.863281 13.957031 11.984375 C 13.910156 12.101562 13.839844 12.207031 13.75 12.296875 C 13.65625 12.386719 13.554688 12.457031 13.433594 12.507812 C 13.316406 12.554688 13.191406 12.582031 13.066406 12.582031 C 12.9375 12.582031 12.8125 12.554688 12.695312 12.507812 C 12.574219 12.457031 12.472656 12.386719 12.378906 12.296875 C 12.289062 12.207031 12.21875 12.101562 12.171875 11.984375 C 12.121094 11.863281 12.097656 11.742188 12.097656 11.613281 Z M 12.097656 9.675781 " fill-opacity="1" fill-rule="nonzero"/><path fill="#00ff41" d="M 17.902344 7.742188 L 18.871094 7.742188 L 18.871094 13.546875 L 17.902344 13.546875 Z M 17.902344 7.742188 " fill-opacity="1" fill-rule="nonzero"/><g clip-path="url(#a689061b5e)"><path fill="#00ff41" d="M 28.546875 7.742188 L 29.515625 7.742188 L 29.515625 13.546875 L 28.546875 13.546875 Z M 28.546875 7.742188 " fill-opacity="1" fill-rule="nonzero"/></g><path fill="#00ff41" d="M 23.710938 13.546875 C 23.964844 13.546875 24.214844 13.5 24.449219 13.402344 C 24.6875 13.304688 24.898438 13.164062 25.078125 12.980469 C 25.257812 12.800781 25.398438 12.589844 25.496094 12.355469 C 25.597656 12.117188 25.644531 11.871094 25.644531 11.613281 L 25.644531 9.675781 C 25.644531 9.421875 25.597656 9.175781 25.496094 8.9375 C 25.398438 8.699219 25.257812 8.492188 25.078125 8.308594 C 24.898438 8.128906 24.6875 7.988281 24.449219 7.890625 C 24.214844 7.792969 23.964844 7.742188 23.710938 7.742188 C 23.453125 7.742188 23.207031 7.792969 22.96875 7.890625 C 22.730469 7.988281 22.523438 8.128906 22.339844 8.308594 C 22.160156 8.492188 22.019531 8.699219 21.921875 8.9375 C 21.824219 9.175781 21.773438 9.421875 21.773438 9.675781 L 21.773438 11.613281 C 21.773438 11.871094 21.824219 12.117188 21.921875 12.355469 C 22.019531 12.589844 22.160156 12.800781 22.339844 12.980469 C 22.523438 13.164062 22.730469 13.304688 22.96875 13.402344 C 23.207031 13.5 23.453125 13.546875 23.710938 13.546875 Z M 22.742188 9.675781 C 22.742188 9.550781 22.765625 9.425781 22.816406 9.308594 C 22.863281 9.1875 22.933594 9.082031 23.023438 8.992188 C 23.117188 8.902344 23.222656 8.832031 23.339844 8.785156 C 23.457031 8.734375 23.582031 8.710938 23.710938 8.710938 C 23.839844 8.710938 23.960938 8.734375 24.078125 8.785156 C 24.199219 8.832031 24.304688 8.902344 24.394531 8.992188 C 24.484375 9.082031 24.554688 9.1875 24.605469 9.308594 C 24.652344 9.425781 24.675781 9.550781 24.675781 9.675781 L 24.675781 11.613281 C 24.675781 11.742188 24.652344 11.863281 24.605469 11.984375 C 24.554688 12.101562 24.484375 12.207031 24.394531 12.296875 C 24.304688 12.386719 24.199219 12.457031 24.078125 12.507812 C 23.960938 12.554688 23.839844 12.582031 23.710938 12.582031 C 23.582031 12.582031 23.457031 12.554688 23.339844 12.507812 C 23.222656 12.457031 23.117188 12.386719 23.023438 12.296875 C 22.933594 12.207031 22.863281 12.101562 22.816406 11.984375 C 22.765625 11.863281 22.742188 11.742188 22.742188 11.613281 Z M 22.742188 9.675781 " fill-opacity="1" fill-rule="nonzero"/><g clip-path="url(#e7a4d71b94)"><path fill="#00ff41" d="M 2.417969 29.03125 C 2.675781 29.03125 2.921875 28.984375 3.160156 28.886719 C 3.398438 28.785156 3.605469 28.648438 3.789062 28.464844 C 3.96875 28.285156 4.109375 28.074219 4.207031 27.835938 C 4.304688 27.601562 4.355469 27.351562 4.355469 27.097656 L 4.355469 25.160156 C 4.355469 24.90625 4.304688 24.65625 4.207031 24.421875 C 4.109375 24.183594 3.96875 23.972656 3.789062 23.792969 C 3.605469 23.609375 3.398438 23.472656 3.160156 23.375 C 2.921875 23.273438 2.675781 23.226562 2.417969 23.226562 C 2.164062 23.226562 1.914062 23.273438 1.679688 23.375 C 1.441406 23.472656 1.230469 23.609375 1.050781 23.792969 C 0.871094 23.972656 0.730469 24.183594 0.632812 24.421875 C 0.53125 24.65625 0.484375 24.90625 0.484375 25.160156 L 0.484375 27.097656 C 0.484375 27.351562 0.53125 27.601562 0.632812 27.835938 C 0.730469 28.074219 0.871094 28.285156 1.050781 28.464844 C 1.230469 28.648438 1.441406 28.785156 1.679688 28.886719 C 1.914062 28.984375 2.164062 29.03125 2.417969 29.03125 Z M 1.453125 25.160156 C 1.453125 25.03125 1.476562 24.910156 1.523438 24.789062 C 1.574219 24.671875 1.644531 24.566406 1.734375 24.476562 C 1.824219 24.386719 1.929688 24.316406 2.050781 24.265625 C 2.167969 24.21875 2.292969 24.195312 2.417969 24.195312 C 2.546875 24.195312 2.671875 24.21875 2.789062 24.265625 C 2.910156 24.316406 3.011719 24.386719 3.105469 24.476562 C 3.195312 24.566406 3.265625 24.671875 3.3125 24.789062 C 3.363281 24.910156 3.386719 25.03125 3.386719 25.160156 L 3.386719 27.097656 C 3.386719 27.226562 3.363281 27.347656 3.3125 27.46875 C 3.265625 27.585938 3.195312 27.691406 3.105469 27.78125 C 3.011719 27.871094 2.910156 27.941406 2.789062 27.992188 C 2.671875 28.039062 2.546875 28.066406 2.417969 28.066406 C 2.292969 28.066406 2.167969 28.039062 2.050781 27.992188 C 1.929688 27.941406 1.824219 27.871094 1.734375 27.78125 C 1.644531 27.691406 1.574219 27.585938 1.523438 27.46875 C 1.476562 27.347656 1.453125 27.226562 1.453125 27.097656 Z M 1.453125 25.160156 " fill-opacity="1" fill-rule="nonzero"/></g><g clip-path="url(#26ff8c5234)"><path fill="#00ff41" d="M 7.257812 23.226562 L 8.226562 23.226562 L 8.226562 29.03125 L 7.257812 29.03125 Z M 7.257812 23.226562 " fill-opacity="1" fill-rule="nonzero"/></g><g clip-path="url(#32f8d81c57)"><path fill="#00ff41" d="M 13.066406 29.03125 C 13.320312 29.03125 13.566406 28.984375 13.804688 28.886719 C 14.042969 28.785156 14.25 28.648438 14.433594 28.464844 C 14.613281 28.285156 14.753906 28.074219 14.851562 27.835938 C 14.949219 27.601562 15 27.351562 15 27.097656 L 15 25.160156 C 15 24.90625 14.949219 24.65625 14.851562 24.421875 C 14.753906 24.183594 14.613281 23.972656 14.433594 23.792969 C 14.25 23.609375 14.042969 23.472656 13.804688 23.375 C 13.566406 23.273438 13.320312 23.226562 13.066406 23.226562 C 12.808594 23.226562 12.5625 23.273438 12.324219 23.375 C 12.085938 23.472656 11.878906 23.609375 11.695312 23.792969 C 11.515625 23.972656 11.375 24.183594 11.277344 24.421875 C 11.179688 24.65625 11.128906 24.90625 11.128906 25.160156 L 11.128906 27.097656 C 11.128906 27.351562 11.179688 27.601562 11.277344 27.835938 C 11.375 28.074219 11.515625 28.285156 11.695312 28.464844 C 11.878906 28.648438 12.085938 28.785156 12.324219 28.886719 C 12.5625 28.984375 12.808594 29.03125 13.066406 29.03125 Z M 12.097656 25.160156 C 12.097656 25.03125 12.121094 24.910156 12.171875 24.789062 C 12.21875 24.671875 12.289062 24.566406 12.378906 24.476562 C 12.472656 24.386719 12.574219 24.316406 12.695312 24.265625 C 12.8125 24.21875 12.9375 24.195312 13.066406 24.195312 C 13.191406 24.195312 13.316406 24.21875 13.433594 24.265625 C 13.554688 24.316406 13.65625 24.386719 13.75 24.476562 C 13.839844 24.566406 13.910156 24.671875 13.957031 24.789062 C 14.007812 24.910156 14.03125 25.03125 14.03125 25.160156 L 14.03125 27.097656 C 14.03125 27.226562 14.007812 27.347656 13.957031 27.46875 C 13.910156 27.585938 13.839844 27.691406 13.75 27.78125 C 13.65625 27.871094 13.554688 27.941406 13.433594 27.992188 C 13.316406 28.039062 13.191406 28.066406 13.066406 28.066406 C 12.9375 28.066406 12.8125 28.039062 12.695312 27.992188 C 12.574219 27.941406 12.472656 27.871094 12.378906 27.78125 C 12.289062 27.691406 12.21875 27.585938 12.171875 27.46875 C 12.121094 27.347656 12.097656 27.226562 12.097656 27.097656 Z M 12.097656 25.160156 " fill-opacity="1" fill-rule="nonzero"/></g><g clip-path="url(#118dfc771e)"><path fill="#00ff41" d="M 17.902344 23.226562 L 18.871094 23.226562 L 18.871094 29.03125 L 17.902344 29.03125 Z M 17.902344 23.226562 " fill-opacity="1" fill-rule="nonzero"/></g><g clip-path="url(#d8c6baf4fd)"><path fill="#00ff41" d="M 28.546875 23.226562 L 29.515625 23.226562 L 29.515625 29.03125 L 28.546875 29.03125 Z M 28.546875 23.226562 " fill-opacity="1" fill-rule="nonzero"/></g><g clip-path="url(#2eebf97ef6)"><path fill="#00ff41" d="M 23.710938 29.03125 C 23.964844 29.03125 24.214844 28.984375 24.449219 28.886719 C 24.6875 28.785156 24.898438 28.648438 25.078125 28.464844 C 25.257812 28.285156 25.398438 28.074219 25.496094 27.835938 C 25.597656 27.601562 25.644531 27.351562 25.644531 27.097656 L 25.644531 25.160156 C 25.644531 24.90625 25.597656 24.65625 25.496094 24.421875 C 25.398438 24.183594 25.257812 23.972656 25.078125 23.792969 C 24.898438 23.609375 24.6875 23.472656 24.449219 23.375 C 24.214844 23.273438 23.964844 23.226562 23.710938 23.226562 C 23.453125 23.226562 23.207031 23.273438 22.96875 23.375 C 22.730469 23.472656 22.523438 23.609375 22.339844 23.792969 C 22.160156 23.972656 22.019531 24.183594 21.921875 24.421875 C 21.824219 24.65625 21.773438 24.90625 21.773438 25.160156 L 21.773438 27.097656 C 21.773438 27.351562 21.824219 27.601562 21.921875 27.835938 C 22.019531 28.074219 22.160156 28.285156 22.339844 28.464844 C 22.523438 28.648438 22.730469 28.785156 22.96875 28.886719 C 23.207031 28.984375 23.453125 29.03125 23.710938 29.03125 Z M 22.742188 25.160156 C 22.742188 25.03125 22.765625 24.910156 22.816406 24.789062 C 22.863281 24.671875 22.933594 24.566406 23.023438 24.476562 C 23.117188 24.386719 23.222656 24.316406 23.339844 24.265625 C 23.457031 24.21875 23.582031 24.195312 23.710938 24.195312 C 23.839844 24.195312 23.960938 24.21875 24.078125 24.265625 C 24.199219 24.316406 24.304688 24.386719 24.394531 24.476562 C 24.484375 24.566406 24.554688 24.671875 24.605469 24.789062 C 24.652344 24.910156 24.675781 25.03125 24.675781 25.160156 L 24.675781 27.097656 C 24.675781 27.226562 24.652344 27.347656 24.605469 27.46875 C 24.554688 27.585938 24.484375 27.691406 24.394531 27.78125 C 24.304688 27.871094 24.199219 27.941406 24.078125 27.992188 C 23.960938 28.039062 23.839844 28.066406 23.710938 28.066406 C 23.582031 28.066406 23.457031 28.039062 23.339844 27.992188 C 23.222656 27.941406 23.117188 27.871094 23.023438 27.78125 C 22.933594 27.691406 22.863281 27.585938 22.816406 27.46875 C 22.765625 27.347656 22.742188 27.226562 22.742188 27.097656 Z M 22.742188 25.160156 " fill-opacity="1" fill-rule="nonzero"/></g></svg>